<?xml version="1.0" encoding="UTF-8" standalone="no"?>
<!-- Created with Inkscape (http://www.inkscape.org/) -->

<svg
   xmlns:dc="http://purl.org/dc/elements/1.1/"
   xmlns:cc="http://creativecommons.org/ns#"
   xmlns:rdf="http://www.w3.org/1999/02/22-rdf-syntax-ns#"
   xmlns:svg="http://www.w3.org/2000/svg"
   xmlns="http://www.w3.org/2000/svg"
   version="1.1"
   width="90"
   height="90"
   id="svg6792">
  <defs
     id="defs6794" />
  <rect
     width="60"
     height="60"
     rx="0"
     ry="0"
     x="33.6395"
     y="-30"
     transform="matrix(0.707107,0.707107,-0.707107,0.707107,0,0)"
     id="rect6763"
     style="fill:#ffffff;stroke:#231f20;stroke-width:0.7" />
  <rect
     width="51.25"
     height="51.25"
     x="-25.6255"
     y="38.0155"
     transform="matrix(0.707107,-0.707107,0.707107,0.707107,0,0)"
     id="rect6769"
     style="fill:none;stroke:#231f20;stroke-width:0.7" />
  <path
     d="M 47.6453,72.5981 47.6453,74 42.3547,74 C 42.412,73.4701 42.5839,72.9679 42.8704,72.4934 43.1568,72.019 43.7226,71.3897 44.5676,70.6055 45.248,69.9717 45.6651,69.542 45.8191,69.3164 46.0268,69.0049 46.1306,68.6969 46.1306,68.3926 46.1306,68.056 46.0402,67.7973 45.8594,67.6165 45.6785,67.4356 45.4288,67.3452 45.1101,67.3452 44.795,67.3452 44.5443,67.4401 44.3582,67.6299 44.172,67.8197 44.0645,68.1348 44.0359,68.5752 L 42.532,68.4248 C 42.6215,67.5941 42.9026,66.9979 43.3752,66.6362 43.8479,66.2746 44.4387,66.0938 45.1477,66.0938 45.9247,66.0938 46.5352,66.3032 46.9792,66.7222 47.4233,67.1411 47.6453,67.6621 47.6453,68.2852 47.6453,68.6397 47.5817,68.9771 47.4546,69.2976 47.3275,69.6181 47.1261,69.9538 46.8503,70.3047 46.6677,70.5374 46.3383,70.8722 45.8621,71.3091 45.3858,71.7459 45.0841,72.036 44.957,72.1792 44.8299,72.3224 44.727,72.4621 44.6482,72.5981 z"
     id="path3097"
     style="fill:#231f20;stroke:none;" />
  <g
     id="g3102">
    <path
       d="M 35.6456,22.727 C 36.3556,22.558 36.3556,23.194 37.0256,23.791 37.0256,23.791 40.3566,26.423 44.2706,27.611 48.1776,28.801 50.7106,29.692 50.9336,29.777 51.1546,29.862 52.1316,30.076 52.9316,29.736 53.7346,29.397 55.1106,30.032 54.9296,30.624 54.7516,31.218 53.7772,31.216 53.4682,32.059 53.1562,32.908 53.0206,33.556 52.1776,33.386 51.3316,33.216 51.3756,32.619 51.2456,31.856 51.1106,31.092 49.7306,30.581 46.3116,29.397 42.8896,28.204 39.2906,26.847 38.7556,26.677 38.2246,26.508 37.0256,25.913 35.9566,26.379 34.8896,26.847 34.2696,25.656 34.8036,25.107 35.3356,24.553 35.4666,24.511 35.2036,24.129 34.9366,23.746 34.2936,23.052 35.6456,22.727 z"
       id="path628"
       style="fill:#ffffff;stroke:#231f20;stroke-width:0.52125;stroke-linecap:butt;stroke-linejoin:miter;stroke-miterlimit:4;stroke-opacity:1;stroke-dasharray:none" />
    <path
       d="M 38.6246,29.946 C 39.8316,29.499 50.3986,25.614 50.9336,25.274 51.4656,24.934 52.7556,23.704 53.1536,23.153 53.5546,22.599 54.6656,22.983 54.5756,23.619 54.4906,24.258 54.2666,24.467 54.5336,24.681 54.7996,24.893 55.5096,24.596 55.3746,25.107 55.2406,25.614 54.8866,26.423 54.3556,26.337 53.8216,26.252 53.3756,25.531 52.1776,25.999 50.9756,26.464 41.0226,30.499 40.1346,30.842 39.2466,31.177 38.6246,32.324 38.3556,32.748 38.0916,33.173 36.8896,33.769 36.6686,32.578 36.4446,31.388 36.4036,31.777 36.1826,31.606 35.9566,31.433 35.3356,30.711 36.1826,30.284 37.0256,29.862 37.2466,30.454 38.6246,29.946 z"
       id="path632"
       style="fill:#ffffff;stroke:#231f20;stroke-width:0.52125;stroke-linecap:butt;stroke-linejoin:miter;stroke-miterlimit:4;stroke-opacity:1;stroke-dasharray:none" />
    <path
       d="M 45.2416,14.873 C 43.0666,14.916 39.6896,17.504 39.4666,17.674 39.2466,17.847 38.5346,19.586 38.9346,20.816 39.3366,22.048 39.9566,22.727 39.8666,23.408 39.7796,24.086 39.6056,25.148 40.3566,25.446 41.1116,25.743 41.5116,25.828 41.6006,26.508 41.6916,27.187 41.7786,27.951 41.8216,28.247 41.8706,28.544 42.8456,29.351 43.4226,29.777 43.9966,30.206 44.4416,30.454 45.1576,30.454 46.4006,30.454 47.1116,29.566 47.3796,29.351 47.9556,28.884 48.5416,29.04 48.4506,28.062 48.4406,27.711 48.4716,26.321 48.7176,26.067 49.0736,25.812 50.0886,25.107 50.1776,24.639 50.2666,24.172 50.1776,22.897 50.2216,22.474 50.2666,22.048 51.2456,21.114 51.1966,20.393 51.1546,19.671 51.5536,18.526 49.9096,17.421 48.2656,16.317 46.6216,14.847 45.2416,14.873"
       id="path634"
       style="fill:#231f20;stroke:none" />
    <path
       d="M 45.2304,15.495 C 44.6583,15.546 44.1431,15.603 43.6991,15.901 43.2571,16.201 40.0402,17.818 39.7304,18.37 39.4211,18.921 38.6356,19.853 40.0116,21.339 40.0116,21.339 39.6821,19.583 40.5741,18.776 40.5741,18.776 40.3716,20.702 40.6366,23.589 40.6976,24.224 40.4811,24.694 41.3241,25.12 42.1691,25.544 43.2101,26.085 43.1678,26.933 43.1678,26.933 43.6971,27.433 45.0741,27.433 46.4541,27.433 46.8406,27.16 46.8866,26.776 46.9296,26.393 46.607,26.005 47.5428,25.62 48.4758,25.239 49.332,24.81 49.4178,24.089 49.5098,23.367 49.8672,20.614 48.9804,18.745 48.9804,18.745 49.8591,19.338 49.9491,21.12 49.9491,21.12 50.5428,20.845 50.5428,19.526 50.5428,18.212 49.6331,17.756 48.6991,17.12 47.7651,16.485 46.6562,15.368 45.2304,15.495 z M 42.3241,21.933 C 42.5462,21.927 42.9377,21.943 43.6054,21.964 44.9353,22.007 43.6403,23.225 43.1054,23.651 42.5733,24.074 41.9153,23.627 41.6054,23.245 41.2942,22.865 41.199,21.964 42.0428,21.964 42.0428,21.964 42.102,21.938 42.3241,21.933 z M 47.8866,21.933 C 48.1092,21.938 48.1678,21.964 48.1678,21.964 49.0098,21.964 48.9153,22.865 48.6054,23.245 48.2924,23.627 47.6061,24.074 47.0741,23.651 46.5401,23.225 45.2693,22.007 46.6054,21.964 47.2709,21.943 47.664,21.927 47.8866,21.933 z M 42.1678,26.558 C 42.1678,26.558 42.1371,28.165 42.4491,28.464 42.7581,28.761 44.116,29.848 44.2928,29.933 44.471,30.018 44.631,30.214 45.1678,30.214 45.6988,30.214 46.0051,29.853 46.2304,29.683 46.4492,29.513 47.6772,28.76 47.8554,28.589 48.0333,28.42 48.1181,27.142 48.0741,26.589 L 47.6204,26.808 C 47.6204,26.808 47.652,27.729 47.4738,27.984 47.297,28.238 46.5641,28.745 45.3241,28.745 44.0791,28.745 42.7431,28.165 42.6991,27.995 42.6561,27.826 42.6366,26.901 42.6366,26.901 z"
       id="path636"
       style="fill:#ffffff;stroke:none" />
    <path
       d="M 44.9756,25.954 C 45.1986,25.954 45.4146,26.294 45.7746,26.211 46.1266,26.123 45.9916,25.703 45.8186,25.361 45.6406,25.023 45.4666,24.258 44.9756,24.213 44.4846,24.172 44.3076,25.023 44.1306,25.361 43.9606,25.703 43.8216,26.123 44.1766,26.211 44.5356,26.294 44.7506,25.954 44.9756,25.954"
       id="path644"
       style="fill:#231f20;stroke:none" />
  </g>
  <path
     d="M 39.8125,37.7188 C 39.1365,37.7188 38.5875,37.8334 38.1875,38.0625 37.7875,38.2916 37.4942,38.5917 37.2812,39 37.0692,39.4083 36.9058,39.8978 36.8438,40.4688 36.7808,41.0396 36.75,41.6688 36.75,42.3438 36.75,43.0187 36.7808,43.648 36.8438,44.2188 36.9058,44.7895 37.0692,45.2791 37.2812,45.6875 37.4942,46.0959 37.7875,46.4271 38.1875,46.6562 38.5875,46.8854 39.1365,47 39.8125,47 40.4875,47 41.0063,46.8854 41.4062,46.6562 41.8062,46.4271 42.1307,46.0959 42.3438,45.6875 42.5558,45.2791 42.688,44.7895 42.75,44.2188 42.813,43.648 42.8438,43.0187 42.8438,42.3438 42.8438,41.6688 42.813,41.0396 42.75,40.4688 42.688,39.8978 42.5558,39.4083 42.3438,39 42.1307,38.5917 41.8062,38.2916 41.4062,38.0625 41.0063,37.8334 40.4875,37.7188 39.8125,37.7188 z M 56.6875,37.7188 C 56.0125,37.7188 55.4927,37.8334 55.0938,38.0625 54.6937,38.2916 54.3683,38.5917 54.1562,39 53.9432,39.4083 53.813,39.8978 53.75,40.4688 53.688,41.0396 53.6562,41.6688 53.6562,42.3438 53.6562,43.0187 53.688,43.648 53.75,44.2188 53.813,44.7895 53.9432,45.2791 54.1562,45.6875 54.3683,46.0959 54.6937,46.4271 55.0938,46.6562 55.4927,46.8854 56.0125,47 56.6875,47 57.2795,47 57.754,46.8793 58.125,46.6875 58.495,46.4958 58.796,46.2353 59,45.9062 59.204,45.5771 59.3313,45.2146 59.4062,44.7812 59.4813,44.3479 59.5312,43.8897 59.5312,43.4062 L 57.7188,43.4062 C 57.7188,43.8897 57.7142,44.2667 57.6562,44.5625 57.5973,44.8582 57.5063,45.0875 57.4062,45.25 57.3072,45.4125 57.2005,45.5395 57.0625,45.5938 56.9255,45.6478 56.7528,45.6562 56.5938,45.6562 56.4028,45.6562 56.2398,45.6103 56.0938,45.5312 55.9488,45.4521 55.846,45.3229 55.75,45.0938 55.654,44.8646 55.5772,44.5417 55.5312,44.125 55.4853,43.7083 55.4688,43.1438 55.4688,42.4688 55.4688,41.8353 55.467,41.3125 55.5,40.875 55.534,40.4374 55.6035,40.0832 55.6875,39.8125 55.7705,39.5418 55.8852,39.3398 56.0312,39.2188 56.1773,39.0979 56.3687,39.0312 56.5938,39.0312 57.0017,39.0312 57.2835,39.1728 57.4375,39.4688 57.5925,39.7646 57.6562,40.2561 57.6562,40.9062 L 59.4688,40.9062 C 59.4688,40.5812 59.421,40.2146 59.375,39.8438 59.329,39.4728 59.2142,39.1333 59.0312,38.8125 58.8483,38.4917 58.5897,38.2396 58.2188,38.0312 57.8477,37.823 57.3295,37.7188 56.6875,37.7188 z M 30.4688,37.875 30.4688,39.375 32.4062,39.375 32.4062,46.8125 34.2188,46.8125 34.2188,39.375 36.1562,39.375 36.1562,37.875 30.4688,37.875 z M 43.5312,37.875 45.5938,42.3125 43.3438,46.8125 45.3438,46.8125 46.5938,43.7812 47.9062,46.8125 49.9062,46.8125 47.6875,42.3125 49.7812,37.875 47.8125,37.875 46.6562,40.7812 45.5312,37.875 43.5312,37.875 z M 50.7188,37.875 50.7188,46.8125 52.5,46.8125 52.5,37.875 50.7188,37.875 z M 39.8125,39.0312 C 40.0785,39.0312 40.2755,39.0979 40.4375,39.2188 40.6005,39.3398 40.7255,39.5458 40.8125,39.8125 40.9005,40.0791 40.971,40.3958 41,40.8125 41.03,41.2292 41.0312,41.7438 41.0312,42.3438 41.0312,42.9437 41.03,43.4542 41,43.875 40.971,44.2959 40.9005,44.6437 40.8125,44.9062 40.7255,45.1686 40.6005,45.3479 40.4375,45.4688 40.2755,45.5896 40.0785,45.6562 39.8125,45.6562 39.5455,45.6562 39.3182,45.5896 39.1562,45.4688 38.9932,45.3479 38.8682,45.1686 38.7812,44.9062 38.6932,44.6437 38.6228,44.2959 38.5938,43.875 38.5638,43.4542 38.5625,42.9437 38.5625,42.3438 38.5625,41.7438 38.5638,41.2292 38.5938,40.8125 38.6228,40.3958 38.6932,40.0791 38.7812,39.8125 38.8682,39.5458 38.9932,39.3398 39.1562,39.2188 39.3182,39.0979 39.5455,39.0312 39.8125,39.0312 z"
     id="path3301"
     style="fill:#231f20;stroke:none;" />
  <path
     d="M 38.3438,49.0312 C 37.7688,49.0312 37.2893,49.1521 36.9062,49.3438 36.5222,49.5353 36.233,49.8083 36,50.1875 35.766,50.5667 35.596,51.0269 35.5,51.5938 35.404,52.1605 35.3438,52.8439 35.3438,53.5938 35.3438,54.3687 35.4017,55.0376 35.4688,55.625 35.5358,56.2125 35.6478,56.6938 35.8438,57.0938 36.0398,57.4937 36.3102,57.7958 36.6562,58 37.0022,58.2042 37.45,58.3125 38,58.3125 38.425,58.3125 38.7898,58.2521 39.0938,58.0938 39.3978,57.9355 39.658,57.6627 39.875,57.3125 L 39.9062,57.3125 39.9062,58.1562 41.2188,58.1562 41.2188,53.3438 38.3125,53.3438 38.3125,54.6562 39.5,54.6562 39.5,55.5625 C 39.5,55.8041 39.4813,56.0084 39.4062,56.1875 39.3312,56.3667 39.238,56.5395 39.125,56.6562 39.013,56.773 38.879,56.8481 38.75,56.9062 38.621,56.9644 38.5142,57 38.4062,57 38.1472,57 37.913,56.9125 37.75,56.75 37.588,56.5875 37.463,56.3667 37.375,56.0625 37.288,55.7583 37.2527,55.3667 37.2188,54.9375 37.1857,54.5084 37.1562,54.0417 37.1562,53.5 37.1562,52.3833 37.2455,51.577 37.4375,51.0938 37.6285,50.6103 37.942,50.375 38.375,50.375 38.559,50.375 38.7148,50.4041 38.8438,50.5 38.9728,50.5959 39.0723,50.7291 39.1562,50.875 39.2392,51.0208 39.3058,51.1958 39.3438,51.375 39.3808,51.5542 39.4062,51.7168 39.4062,51.875 L 41.125,51.875 C 41.125,50.9669 40.9017,50.2688 40.4688,49.7812 40.0358,49.2938 39.3268,49.0312 38.3438,49.0312 z M 51.9062,49.0312 C 51.0482,49.0312 50.367,49.2541 49.875,49.6875 49.384,50.1208 49.125,50.7731 49.125,51.6562 49.125,52.0231 49.1902,52.3459 49.2812,52.625 49.3732,52.9041 49.4915,53.1624 49.6875,53.375 49.8835,53.5876 50.1455,53.7792 50.4375,53.9375 50.7285,54.0958 51.0688,54.2417 51.4688,54.375 51.7688,54.4749 52.0148,54.5603 52.2188,54.6562 52.4228,54.7522 52.5938,54.8522 52.7188,54.9688 52.8438,55.0854 52.946,55.2291 53,55.375 53.054,55.5208 53.0625,55.706 53.0625,55.9062 53.0625,56.2811 52.971,56.5396 52.75,56.7188 52.529,56.8979 52.275,57 52,57 51.758,57 51.5562,56.9729 51.4062,56.9062 51.2563,56.8396 51.1232,56.7416 51.0312,56.625 50.9402,56.5084 50.8768,56.3584 50.8438,56.1875 50.8098,56.0166 50.8125,55.8333 50.8125,55.625 L 50.8125,55.3438 49,55.3438 49,55.7188 C 49,56.5438 49.2182,57.1708 49.6562,57.625 50.0943,58.0792 50.8278,58.3125 51.8438,58.3125 52.8188,58.3125 53.579,58.098 54.125,57.6562 54.67,57.2144 54.9375,56.5351 54.9375,55.5938 54.9375,55.3185 54.925,55.0686 54.875,54.8438 54.825,54.6188 54.7228,54.4062 54.5938,54.2188 54.4648,54.0312 54.2835,53.85 54.0625,53.6875 53.8425,53.525 53.584,53.3689 53.25,53.2188 L 51.8438,52.625 C 51.4597,52.4665 51.2097,52.2812 51.0938,52.0938 50.9767,51.9062 50.9375,51.6812 50.9375,51.4062 50.9375,51.273 50.9398,51.1562 50.9688,51.0312 50.9988,50.9062 51.046,50.7834 51.125,50.6875 51.204,50.5916 51.3347,50.5271 51.4688,50.4688 51.6017,50.4104 51.7687,50.375 51.9688,50.375 52.3177,50.375 52.5677,50.4894 52.7188,50.7188 52.8687,50.9479 52.9375,51.2626 52.9375,51.6875 L 54.6562,51.6875 54.6562,51.4375 C 54.6562,51.0125 54.5755,50.648 54.4375,50.3438 54.3005,50.0395 54.121,49.7895 53.875,49.5938 53.629,49.398 53.338,49.275 53,49.1875 52.663,49.1 52.3062,49.0312 51.9062,49.0312 z M 44.125,49.2188 41.7812,58.1562 43.6562,58.1562 44.0625,56.25 46.4375,56.25 46.8438,58.1562 48.7188,58.1562 46.375,49.2188 44.125,49.2188 z M 45.25,50.7812 46.125,54.7812 44.375,54.7812 45.25,50.7812 z"
     id="path3312"
     style="fill:#231f20;stroke:none;" />
</svg>
