<?xml version="1.0" encoding="UTF-8" standalone="no"?>
<!-- Created with Inkscape (http://www.inkscape.org/) -->

<svg
   xmlns:dc="http://purl.org/dc/elements/1.1/"
   xmlns:cc="http://creativecommons.org/ns#"
   xmlns:rdf="http://www.w3.org/1999/02/22-rdf-syntax-ns#"
   xmlns:svg="http://www.w3.org/2000/svg"
   xmlns="http://www.w3.org/2000/svg"
   version="1.1"
   width="90"
   height="90"
   id="svg6792">
  <defs
     id="defs6794" />
  <rect
     width="60"
     height="60"
     rx="0"
     ry="0"
     x="33.6395"
     y="-30"
     transform="matrix(0.707107,0.707107,-0.707107,0.707107,0,0)"
     id="rect6763"
     style="fill:#ffffff;stroke:#231f20;stroke-width:0.7" />
  <rect
     width="51.25"
     height="51.25"
     x="-25.6255"
     y="38.0155"
     transform="matrix(0.707107,-0.707107,0.707107,0.707107,0,0)"
     id="rect6769"
     style="fill:none;stroke:#231f20;stroke-width:0.7" />
  <path
     d="M 47.4841,67.9199 46.0232,68.0811 C 45.9874,67.7803 45.8943,67.5583 45.7439,67.415 45.5935,67.2718 45.3984,67.2002 45.1584,67.2002 44.8398,67.2002 44.5703,67.3434 44.3501,67.6299 44.1299,67.9163 43.9911,68.5125 43.9338,69.4185 44.3098,68.9745 44.7771,68.7524 45.3357,68.7524 45.9659,68.7524 46.5057,68.9924 46.9551,69.4722 47.4045,69.952 47.6291,70.5715 47.6292,71.3306 47.6291,72.1362 47.3928,72.7826 46.9202,73.2695 46.4475,73.7565 45.8406,74 45.0994,74 44.3044,74 43.651,73.6912 43.1389,73.0735 42.6269,72.4558 42.3708,71.4434 42.3708,70.0361 42.3708,68.5931 42.6376,67.5529 43.1711,66.9155 43.7047,66.2782 44.3975,65.9595 45.2498,65.9595 45.8477,65.9595 46.3428,66.1269 46.7349,66.4617 47.1269,66.7965 47.3767,67.2826 47.4841,67.9199 z M 44.0627,71.2124 C 44.0627,71.703 44.1755,72.0816 44.4011,72.3484 44.6267,72.6152 44.8845,72.7485 45.1746,72.7485 45.4539,72.7485 45.6866,72.6393 45.8728,72.4209 46.059,72.2025 46.1521,71.8444 46.1521,71.3467 46.1521,70.8346 46.0518,70.4596 45.8513,70.2214 45.6508,69.9833 45.4001,69.8643 45.0994,69.8643 44.8093,69.8643 44.564,69.9779 44.3635,70.2053 44.163,70.4327 44.0627,70.7684 44.0627,71.2124 z"
     id="path2997"
     style="fill:#231f20;stroke:none;" />
  <g
     id="g3012">
    <path
       d="M 35.6456,22.727 C 36.3556,22.558 36.3556,23.194 37.0256,23.791 37.0256,23.791 40.3566,26.423 44.2706,27.611 48.1776,28.801 50.7106,29.692 50.9336,29.777 51.1546,29.862 52.1316,30.076 52.9316,29.736 53.7346,29.397 55.1106,30.032 54.9296,30.624 54.7516,31.218 53.7772,31.216 53.4682,32.059 53.1562,32.908 53.0206,33.556 52.1776,33.386 51.3316,33.216 51.3756,32.619 51.2456,31.856 51.1106,31.092 49.7306,30.581 46.3116,29.397 42.8896,28.204 39.2906,26.847 38.7556,26.677 38.2246,26.508 37.0256,25.913 35.9566,26.379 34.8896,26.847 34.2696,25.656 34.8036,25.107 35.3356,24.553 35.4666,24.511 35.2036,24.129 34.9366,23.746 34.2936,23.052 35.6456,22.727 z"
       id="path628"
       style="fill:#ffffff;stroke:#231f20;stroke-width:0.52125;stroke-linecap:butt;stroke-linejoin:miter;stroke-miterlimit:4;stroke-opacity:1;stroke-dasharray:none" />
    <path
       d="M 38.6246,29.946 C 39.8316,29.499 50.3986,25.614 50.9336,25.274 51.4656,24.934 52.7556,23.704 53.1536,23.153 53.5546,22.599 54.6656,22.983 54.5756,23.619 54.4906,24.258 54.2666,24.467 54.5336,24.681 54.7996,24.893 55.5096,24.596 55.3746,25.107 55.2406,25.614 54.8866,26.423 54.3556,26.337 53.8216,26.252 53.3756,25.531 52.1776,25.999 50.9756,26.464 41.0226,30.499 40.1346,30.842 39.2466,31.177 38.6246,32.324 38.3556,32.748 38.0916,33.173 36.8896,33.769 36.6686,32.578 36.4446,31.388 36.4036,31.777 36.1826,31.606 35.9566,31.433 35.3356,30.711 36.1826,30.284 37.0256,29.862 37.2466,30.454 38.6246,29.946 z"
       id="path632"
       style="fill:#ffffff;stroke:#231f20;stroke-width:0.52125;stroke-linecap:butt;stroke-linejoin:miter;stroke-miterlimit:4;stroke-opacity:1;stroke-dasharray:none" />
    <path
       d="M 45.2416,14.873 C 43.0666,14.916 39.6896,17.504 39.4666,17.674 39.2466,17.847 38.5346,19.586 38.9346,20.816 39.3366,22.048 39.9566,22.727 39.8666,23.408 39.7796,24.086 39.6056,25.148 40.3566,25.446 41.1116,25.743 41.5116,25.828 41.6006,26.508 41.6916,27.187 41.7786,27.951 41.8216,28.247 41.8706,28.544 42.8456,29.351 43.4226,29.777 43.9966,30.206 44.4416,30.454 45.1576,30.454 46.4006,30.454 47.1116,29.566 47.3796,29.351 47.9556,28.884 48.5416,29.04 48.4506,28.062 48.4406,27.711 48.4716,26.321 48.7176,26.067 49.0736,25.812 50.0886,25.107 50.1776,24.639 50.2666,24.172 50.1776,22.897 50.2216,22.474 50.2666,22.048 51.2456,21.114 51.1966,20.393 51.1546,19.671 51.5536,18.526 49.9096,17.421 48.2656,16.317 46.6216,14.847 45.2416,14.873"
       id="path634"
       style="fill:#231f20;stroke:none" />
    <path
       d="M 45.2304,15.495 C 44.6583,15.546 44.1431,15.603 43.6991,15.901 43.2571,16.201 40.0402,17.818 39.7304,18.37 39.4211,18.921 38.6356,19.853 40.0116,21.339 40.0116,21.339 39.6821,19.583 40.5741,18.776 40.5741,18.776 40.3716,20.702 40.6366,23.589 40.6976,24.224 40.4811,24.694 41.3241,25.12 42.1691,25.544 43.2101,26.085 43.1678,26.933 43.1678,26.933 43.6971,27.433 45.0741,27.433 46.4541,27.433 46.8406,27.16 46.8866,26.776 46.9296,26.393 46.607,26.005 47.5428,25.62 48.4758,25.239 49.332,24.81 49.4178,24.089 49.5098,23.367 49.8672,20.614 48.9804,18.745 48.9804,18.745 49.8591,19.338 49.9491,21.12 49.9491,21.12 50.5428,20.845 50.5428,19.526 50.5428,18.212 49.6331,17.756 48.6991,17.12 47.7651,16.485 46.6562,15.368 45.2304,15.495 z M 42.3241,21.933 C 42.5462,21.927 42.9377,21.943 43.6054,21.964 44.9353,22.007 43.6403,23.225 43.1054,23.651 42.5733,24.074 41.9153,23.627 41.6054,23.245 41.2942,22.865 41.199,21.964 42.0428,21.964 42.0428,21.964 42.102,21.938 42.3241,21.933 z M 47.8866,21.933 C 48.1092,21.938 48.1678,21.964 48.1678,21.964 49.0098,21.964 48.9153,22.865 48.6054,23.245 48.2924,23.627 47.6061,24.074 47.0741,23.651 46.5401,23.225 45.2693,22.007 46.6054,21.964 47.2709,21.943 47.664,21.927 47.8866,21.933 z M 42.1678,26.558 C 42.1678,26.558 42.1371,28.165 42.4491,28.464 42.7581,28.761 44.116,29.848 44.2928,29.933 44.471,30.018 44.631,30.214 45.1678,30.214 45.6988,30.214 46.0051,29.853 46.2304,29.683 46.4492,29.513 47.6772,28.76 47.8554,28.589 48.0333,28.42 48.1181,27.142 48.0741,26.589 L 47.6204,26.808 C 47.6204,26.808 47.652,27.729 47.4738,27.984 47.297,28.238 46.5641,28.745 45.3241,28.745 44.0791,28.745 42.7431,28.165 42.6991,27.995 42.6561,27.826 42.6366,26.901 42.6366,26.901 z"
       id="path636"
       style="fill:#ffffff;stroke:none" />
    <path
       d="M 44.9756,25.954 C 45.1986,25.954 45.4146,26.294 45.7746,26.211 46.1266,26.123 45.9916,25.703 45.8186,25.361 45.6406,25.023 45.4666,24.258 44.9756,24.213 44.4846,24.172 44.3076,25.023 44.1306,25.361 43.9606,25.703 43.8216,26.123 44.1766,26.211 44.5356,26.294 44.7506,25.954 44.9756,25.954"
       id="path644"
       style="fill:#231f20;stroke:none" />
  </g>
  <path
     d="M 33.1875,38.6875 C 32.2692,38.6875 31.5438,38.8446 31,39.1562 30.4561,39.4678 30.0392,39.9135 29.75,40.4688 29.4609,41.0241 29.2725,41.6923 29.1875,42.4688 29.1026,43.2453 29.0625,44.0821 29.0625,45 29.0625,45.9179 29.1026,46.755 29.1875,47.5312 29.2725,48.3075 29.4609,48.9757 29.75,49.5312 30.0392,50.0866 30.4561,50.5322 31,50.8438 31.5438,51.1554 32.2692,51.3125 33.1875,51.3125 34.1054,51.3125 34.8311,51.1554 35.375,50.8438 35.9188,50.5322 36.3359,50.0866 36.625,49.5312 36.9141,48.9757 37.1026,48.3075 37.1875,47.5312 37.2724,46.755 37.3124,45.9179 37.3125,45 37.3124,44.0821 37.2724,43.2453 37.1875,42.4688 37.1026,41.6923 36.9141,41.0241 36.625,40.4688 36.3359,39.9135 35.9188,39.4678 35.375,39.1562 34.8311,38.8446 34.1054,38.6875 33.1875,38.6875 z M 46.625,38.6875 C 45.4577,38.6875 44.5435,38.9732 43.875,39.5625 43.2064,40.1519 42.8438,41.0488 42.8438,42.25 42.8438,42.7488 42.9068,43.2141 43.0312,43.5938 43.1558,43.9733 43.3585,44.3047 43.625,44.5938 43.8915,44.883 44.2285,45.1285 44.625,45.3438 45.0216,45.559 45.4873,45.7562 46.0312,45.9375 46.4394,46.0734 46.785,46.2133 47.0625,46.3438 47.3401,46.474 47.5799,46.6227 47.75,46.7812 47.9202,46.9398 48.0202,47.1142 48.0938,47.3125 48.1672,47.5109 48.2188,47.7278 48.2188,48 48.2188,48.5098 48.0503,48.8814 47.75,49.125 47.4498,49.3687 47.1242,49.5 46.75,49.5 46.4214,49.5 46.1414,49.4656 45.9375,49.375 45.7336,49.2844 45.5935,49.1586 45.4688,49 45.3441,48.8414 45.233,48.6387 45.1875,48.4062 45.142,48.1739 45.125,47.9082 45.125,47.625 L 45.125,47.2812 42.6875,47.2812 42.6875,47.7812 C 42.6875,48.9032 42.9986,49.7572 43.5938,50.375 44.1887,50.9927 45.1489,51.3125 46.5312,51.3125 47.8573,51.3125 48.9138,51.007 49.6562,50.4062 50.3986,49.8055 50.75,48.8742 50.75,47.5938 50.75,47.2195 50.7244,46.8684 50.6562,46.5625 50.5881,46.2566 50.4567,45.9738 50.2812,45.7188 50.1056,45.4637 49.8942,45.221 49.5938,45 49.2934,44.779 48.8909,44.5791 48.4375,44.375 L 46.5625,43.5625 C 46.0413,43.3471 45.6899,43.0988 45.5312,42.8438 45.3724,42.5887 45.3125,42.2801 45.3125,41.9062 45.3125,41.725 45.3352,41.545 45.375,41.375 45.4148,41.2051 45.4862,41.0679 45.5938,40.9375 45.7013,40.8071 45.8498,40.7044 46.0312,40.625 46.2126,40.5456 46.4157,40.5 46.6875,40.5 47.1635,40.5 47.5147,40.657 47.7188,40.9688 47.9229,41.2806 48.0312,41.7345 48.0312,42.3125 L 50.375,42.3125 50.375,41.9688 C 50.375,41.3909 50.2806,40.8825 50.0938,40.4688 49.9067,40.0552 49.647,39.7038 49.3125,39.4375 48.978,39.1712 48.5839,38.994 48.125,38.875 47.666,38.7561 47.169,38.6875 46.625,38.6875 z M 55.875,38.6875 C 54.9567,38.6875 54.2314,38.8446 53.6875,39.1562 53.1436,39.4678 52.7266,39.9135 52.4375,40.4688 52.1483,41.0241 51.9599,41.6923 51.875,42.4688 51.7901,43.2453 51.75,44.0821 51.75,45 51.75,45.9179 51.7901,46.755 51.875,47.5312 51.9599,48.3075 52.1483,48.9757 52.4375,49.5312 52.7266,50.0866 53.1436,50.5322 53.6875,50.8438 54.2314,51.1554 54.9567,51.3125 55.875,51.3125 56.7929,51.3125 57.5186,51.1554 58.0625,50.8438 58.6064,50.5322 59.0234,50.0866 59.3125,49.5312 59.6017,48.9757 59.7901,48.3075 59.875,47.5312 59.9599,46.755 60,45.9179 60,45 60,44.0821 59.9599,43.2453 59.875,42.4688 59.7901,41.6923 59.6017,41.0241 59.3125,40.4688 59.0234,39.9135 58.6064,39.4678 58.0625,39.1562 57.5186,38.8446 56.7929,38.6875 55.875,38.6875 z M 20.5,38.9375 20.5,51.0625 22.9375,51.0625 22.9375,46.2188 24.25,46.2188 C 24.828,46.2189 25.3364,46.1474 25.8125,46 26.2885,45.8527 26.697,45.6385 27.0312,45.3438 27.3655,45.0491 27.6256,44.6776 27.8125,44.2188 27.9995,43.7597 28.0938,43.1972 28.0938,42.5625 28.0938,42.1091 28.0508,41.6551 27.9375,41.2188 27.8243,40.7825 27.6356,40.4025 27.375,40.0625 27.1144,39.7225 26.7689,39.4596 26.3438,39.25 25.9186,39.0404 25.4046,38.9375 24.7812,38.9375 L 20.5,38.9375 z M 38.9062,38.9375 38.9062,51.0625 41.3438,51.0625 41.3438,38.9375 38.9062,38.9375 z M 61.4688,38.9375 61.4688,51.0625 63.6875,51.0625 63.6875,42.5625 63.75,42.5625 66.7188,51.0625 69.5,51.0625 69.5,38.9375 67.2812,38.9375 67.2812,47.25 67.25,47.25 64.2812,38.9375 61.4688,38.9375 z M 33.1875,40.5 C 33.5499,40.5 33.8415,40.5856 34.0625,40.75 34.2835,40.9145 34.4748,41.1686 34.5938,41.5312 34.7126,41.8939 34.7727,42.3708 34.8125,42.9375 34.8523,43.5042 34.875,44.1841 34.875,45 34.875,45.8159 34.8523,46.5213 34.8125,47.0938 34.7727,47.6661 34.7126,48.1118 34.5938,48.4688 34.4748,48.8256 34.2835,49.0857 34.0625,49.25 33.8415,49.4143 33.5499,49.5 33.1875,49.5 32.8247,49.5 32.5335,49.4143 32.3125,49.25 32.0915,49.0857 31.9314,48.8256 31.8125,48.4688 31.6935,48.1118 31.6023,47.6661 31.5625,47.0938 31.5228,46.5213 31.5,45.8159 31.5,45 31.5,44.1841 31.5228,43.5042 31.5625,42.9375 31.6023,42.3708 31.6935,41.8939 31.8125,41.5312 31.9314,41.1686 32.0915,40.9145 32.3125,40.75 32.5335,40.5856 32.8247,40.5 33.1875,40.5 z M 55.875,40.5 C 56.2375,40.5 56.529,40.5856 56.75,40.75 56.971,40.9145 57.131,41.1686 57.25,41.5312 57.369,41.8939 57.4603,42.3708 57.5,42.9375 57.5398,43.5042 57.5625,44.1841 57.5625,45 57.5625,45.8159 57.5398,46.5213 57.5,47.0938 57.4603,47.6661 57.369,48.1118 57.25,48.4688 57.131,48.8256 56.971,49.0857 56.75,49.25 56.529,49.4143 56.2375,49.5 55.875,49.5 55.5122,49.5 55.221,49.4143 55,49.25 54.779,49.0857 54.619,48.8256 54.5,48.4688 54.381,48.1118 54.2897,47.6661 54.25,47.0938 54.2102,46.5213 54.1875,45.8159 54.1875,45 54.1875,44.1841 54.2102,43.5042 54.25,42.9375 54.2897,42.3708 54.381,41.8939 54.5,41.5312 54.619,41.1686 54.779,40.9145 55,40.75 55.221,40.5856 55.5122,40.5 55.875,40.5 z M 22.9375,40.7188 23.9375,40.7188 C 24.5496,40.7188 24.9894,40.9014 25.25,41.2188 25.5106,41.5361 25.6562,41.9817 25.6562,42.5938 25.6562,43.2171 25.4879,43.6742 25.1875,43.9688 24.8871,44.2635 24.5185,44.4375 24.0312,44.4375 L 22.9375,44.4375 22.9375,40.7188 z"
     id="path3000"
     style="fill:#231f20;stroke:none;" />
</svg>
