<?xml version="1.0" encoding="UTF-8" standalone="no"?>
<!-- Created with Inkscape (http://www.inkscape.org/) -->

<svg
   xmlns:dc="http://purl.org/dc/elements/1.1/"
   xmlns:cc="http://creativecommons.org/ns#"
   xmlns:rdf="http://www.w3.org/1999/02/22-rdf-syntax-ns#"
   xmlns:svg="http://www.w3.org/2000/svg"
   xmlns="http://www.w3.org/2000/svg"
   version="1.1"
   width="90"
   height="90"
   id="svg6792">
  <defs
     id="defs6794" />
  <rect
     width="60"
     height="60"
     rx="0"
     ry="0"
     x="33.6395"
     y="-30"
     transform="matrix(0.707107,0.707107,-0.707107,0.707107,0,0)"
     id="rect6763"
     style="fill:#e0393e;stroke:#231f20;stroke-width:0.7" />
  <rect
     width="51.25"
     height="51.25"
     x="-25.6255"
     y="38.0155"
     transform="matrix(0.707107,-0.707107,0.707107,0.707107,0,0)"
     id="rect6769"
     style="fill:none;stroke:#ffffff;stroke-width:0.7" />
  <path
     d="M 42.3843,71.7764 43.8452,71.5991 C 43.8918,71.9715 44.0171,72.2562 44.2212,72.4531 44.4253,72.6501 44.6724,72.7485 44.9624,72.7485 45.2739,72.7485 45.5362,72.6304 45.7493,72.394 45.9623,72.1577 46.0688,71.839 46.0688,71.438 46.0688,71.0584 45.9668,70.7577 45.7627,70.5356 45.5586,70.3136 45.3097,70.2026 45.0161,70.2026 44.8228,70.2026 44.5918,70.2402 44.3232,70.3154 L 44.4897,69.0854 C 44.8979,69.0962 45.2095,69.0076 45.4243,68.8196 45.6392,68.6316 45.7466,68.3818 45.7466,68.0703 45.7466,67.8053 45.6678,67.5941 45.5103,67.4365 45.3527,67.279 45.1432,67.2002 44.8818,67.2002 44.624,67.2002 44.4038,67.2897 44.2212,67.4688 44.0386,67.6478 43.9276,67.9092 43.8882,68.2529 L 42.4971,68.0166 C 42.5937,67.5404 42.7397,67.1599 42.9348,66.8752 43.13,66.5906 43.4021,66.3668 43.7512,66.2039 44.1003,66.0409 44.4915,65.9595 44.9248,65.9595 45.666,65.9595 46.2604,66.1958 46.708,66.6685 47.0768,67.0552 47.2612,67.492 47.2612,67.979 47.2612,68.6701 46.8835,69.2215 46.1279,69.6333 46.5791,69.73 46.9399,69.9466 47.2102,70.2832 47.4805,70.6198 47.6157,71.0262 47.6157,71.5024 47.6157,72.1935 47.3633,72.7826 46.8584,73.2695 46.3535,73.7565 45.7251,74 44.9731,74 44.2606,74 43.6698,73.795 43.2007,73.385 42.7316,72.975 42.4595,72.4388 42.3843,71.7764 z"
     id="path3349"
     style="fill:#ffffff;stroke:none;" />
  <path
     d="M 44.7829,14.125 C 44.7829,14.125 44.5887,14.1393 44.4704,14.2812 43.8954,14.9713 43.6374,16.0328 43.5954,16.9688 43.4604,18.2168 44.3734,19.1818 44.2204,20.4688 43.2844,19.4738 42.5467,18.938 41.3767,18.5 41.2477,18.447 41.1206,18.4067 41.0017,18.3438 41.1027,18.7948 41.3086,19.1333 41.6267,19.5312 42.7506,20.8833 41.5657,22.528 41.7517,24 41.3157,23.31 40.6769,22.8347 40.0329,22.3438 39.8964,22.2518 39.6786,22.1092 39.5017,22.2812 L 39.7829,22.8125 C 40.5159,23.8205 40.3382,25.386 39.9391,26.5 39.2862,25.877 38.7122,25.0267 37.8141,25.0938 38.7702,26.6187 38.5652,28.8238 39.3141,30.4688 39.9802,31.9268 41.4299,32.7835 42.9079,33.0625 43.4745,33.1385 44.6891,33.2188 44.6891,33.2188 L 44.6891,32.9375 C 42.8382,32.6325 42.9299,30.5435 41.5329,29.5625 L 41.4704,29.5 41.5329,29.4688 C 41.6078,29.4247 41.7043,29.468 41.8767,29.5 42.1137,29.548 42.4262,29.8545 42.5641,29.5625 42.2321,28.7795 42.3296,28.0537 42.3767,27.2188 L 42.4704,27.2188 C 43.1494,28.2257 43.0569,29.539 44.0329,30.375 44.1259,30.401 44.2491,30.5167 44.3141,30.3438 44.2841,28.9518 43.5082,27.6335 43.9391,26.1875 44.1052,26.6385 44.3252,27.2967 44.8141,27.4688 45.5431,26.7398 45.3526,25.4507 45.2517,24.4688 46.0556,25.5168 46.3267,27.2365 45.7517,28.5625 45.6957,28.7215 45.5141,28.8905 45.6891,29.0625 46.2451,28.8775 46.6899,28.2843 47.0329,27.7812 L 47.0641,27.6875 47.0954,27.7812 C 47.2064,28.2052 47.1409,28.6515 47.0329,29.0625 46.9779,29.4205 46.5314,29.6732 46.7204,30.0312 47.2874,29.8592 47.7017,29.3042 48.1267,28.9062 48.3427,30.5903 47.1879,32.1955 45.7829,32.9375 L 45.7829,33.1875 C 45.7829,33.1875 46.4402,33.1355 46.8767,33.0625 49.2037,32.7575 51.4154,30.821 51.9704,28.5 52.4084,27.28 52.0324,26.0985 52.0954,24.8125 L 52.0954,24.6562 52.0329,24.6875 C 51.4579,25.2975 51.4172,26.2258 51.0641,26.9688 50.9082,27.1807 50.7674,27.5798 50.4704,27.5938 50.4334,26.6388 50.8442,25.724 51.1891,24.875 51.5341,23.735 51.1587,22.553 50.5017,21.625 50.4685,21.585 50.4234,21.5493 50.3767,21.5312 50.3967,21.5813 50.4268,21.6235 50.4391,21.6875 50.6332,22.9745 49.9959,23.9582 49.0329,24.7812 48.8931,24.8862 48.7219,25.1642 48.5329,25.0312 48.9519,23.5593 49.3947,21.8218 48.3767,20.4688 48.2085,20.2127 47.9752,19.7398 47.5641,19.5938 47.5461,20.5487 47.5434,21.7527 46.8454,22.4688 46.8454,22.0177 46.9512,21.4988 46.9391,20.9688 47.0672,18.4088 44.2659,16.846 44.7829,14.125 z M 39.0329,33.6562 39.0329,34.9062 51.0017,34.9062 51.0017,33.6562 39.0329,33.6562 z"
     id="path1390"
     style="fill:#ffffff;stroke:none" />
  <path
     d="M 17.7812,41.0625 17.7812,48.9375 19.375,48.9375 19.375,45.5312 22,45.5312 22,44.2188 19.375,44.2188 19.375,42.375 22.1875,42.375 22.1875,41.0625 17.7812,41.0625 z M 22.875,41.0625 22.875,48.9375 27.2812,48.9375 27.2812,47.625 24.4688,47.625 24.4688,41.0625 22.875,41.0625 z M 29.5,41.0625 27.4062,48.9375 29.0625,48.9375 29.4375,47.2812 31.5312,47.2812 31.875,48.9375 33.5312,48.9375 31.4688,41.0625 29.5,41.0625 z M 34.125,41.0625 34.125,48.9375 35.5625,48.9375 35.5625,42.6562 35.5938,42.6562 37,48.9375 38.2188,48.9375 39.625,42.6562 39.6562,42.6562 39.6562,48.9375 41.0938,48.9375 41.0938,41.0625 38.75,41.0625 37.625,46.625 37.5938,46.625 36.4688,41.0625 34.125,41.0625 z M 42.2812,41.0625 42.2812,48.9375 43.7188,48.9375 43.7188,42.6562 43.75,42.6562 45.125,48.9375 46.375,48.9375 47.7812,42.6562 47.7812,48.9375 49.25,48.9375 49.25,41.0625 46.9062,41.0625 45.7812,46.625 45.75,46.625 44.625,41.0625 42.2812,41.0625 z M 51.9062,41.0625 49.8125,48.9375 51.4688,48.9375 51.8438,47.2812 53.9375,47.2812 54.2812,48.9375 55.9375,48.9375 53.875,41.0625 51.9062,41.0625 z M 56.5,41.0625 56.5,48.9375 59.1875,48.9375 C 59.6494,48.9375 60.0319,48.8746 60.3438,48.75 60.6554,48.6253 60.8994,48.4591 61.0938,48.25 61.2879,48.041 61.4193,47.7786 61.5,47.5 61.5806,47.2213 61.625,46.9331 61.625,46.625 61.625,46.097 61.5066,45.6903 61.25,45.375 60.9934,45.0597 60.6277,44.8712 60.1875,44.8125 L 60.1875,44.7812 C 60.5836,44.6713 60.8958,44.4607 61.0938,44.1562 61.2918,43.852 61.3749,43.4877 61.375,43.0625 61.3749,42.6883 61.3287,42.3816 61.2188,42.125 61.1088,41.8684 60.948,41.6541 60.75,41.5 60.5521,41.3459 60.3375,41.2534 60.0625,41.1875 59.7874,41.1216 59.4789,41.0625 59.1562,41.0625 L 56.5,41.0625 z M 62.625,41.0625 62.625,48.9375 67,48.9375 67,47.625 64.2188,47.625 64.2188,41.0625 62.625,41.0625 z M 67.7188,41.0625 67.7188,48.9375 72.2188,48.9375 72.2188,47.625 69.3125,47.625 69.3125,45.5312 71.9375,45.5312 71.9375,44.2188 69.3125,44.2188 69.3125,42.375 72.0938,42.375 72.0938,41.0625 67.7188,41.0625 z M 58.0938,42.25 58.6562,42.25 C 59.0521,42.25 59.3477,42.3147 59.5312,42.4688 59.7145,42.6227 59.8124,42.876 59.8125,43.25 59.8124,43.6242 59.7016,43.9048 59.5,44.0625 59.2983,44.2201 58.9714,44.2812 58.5312,44.2812 L 58.0938,44.2812 58.0938,42.25 z M 30.4688,42.4375 30.5,42.4375 31.25,45.9688 29.7188,45.9688 30.4688,42.4375 z M 52.875,42.4375 52.9062,42.4375 53.6562,45.9688 52.125,45.9688 52.875,42.4375 z M 58.0938,45.4062 58.7812,45.4062 C 58.9572,45.4062 59.1033,45.4008 59.25,45.4375 59.3967,45.4742 59.5187,45.5645 59.625,45.6562 59.7313,45.7478 59.8126,45.8496 59.875,46 59.9373,46.1504 59.9688,46.3351 59.9688,46.5625 59.9688,47.017 59.8596,47.3312 59.625,47.5 59.3903,47.6687 59.0688,47.75 58.6875,47.75 L 58.0938,47.75 58.0938,45.4062 z"
     id="path3352"
     style="fill:#ffffff;stroke:none;" />
</svg>
