<svg xmlns="http://www.w3.org/2000/svg" viewBox="0 0 90 90"><rect width="60" height="60" x="33.64" y="-30" fill="#fff" stroke="#231f20" stroke-width=".7" rx="0" ry="0" transform="rotate(45)"/><path fill="#231f20" d="M44.25 15.53a7.39 7.39 0 0 0-6.63 7.35c0 .18.02.35.04.53-.16.07-.32.13-.47.21a7.3 7.3 0 0 0-3.1 9.13l-.03-.16c-.06-.2-.12-.41-.15-.62l-.03-.38a3.57 3.57 0 0 1-.04-.46 5.03 5.03 0 0 1 .6-2.32 5.1 5.1 0 0 1 1.9-2l.47-.22c.16-.07.3-.13.47-.18l.06-.04c.23-.06.46-.12.7-.15.12-.02.24-.02.37-.03a5 5 0 0 1 4.53 2.1l.72-.41a1.13 1.13 0 0 1-.03-.25c0-.6.39-1.1.93-1.29v-.8a5.02 5.02 0 0 1-4.1-2.88l-.12-.32c-.1-.26-.21-.53-.28-.8-.02-.1-.01-.2-.03-.29a4.3 4.3 0 0 1 .03-1.66c.04-.18.1-.35.16-.53.05-.16.09-.34.16-.5.04-.1.1-.18.15-.28a5.3 5.3 0 0 1 .63-.97l.15-.18c.12-.13.25-.23.38-.35.15-.13.3-.26.47-.37l.15-.1c.18-.1.35-.22.53-.31a5.4 5.4 0 0 1 1.66-.47h-.25zm1.75.06c.1.02.21.07.31.1a4.8 4.8 0 0 1 .85.31c.18.09.35.2.53.31l.15.1c.17.11.32.24.47.37l.38.34.15.2a4.85 4.85 0 0 1 .63.96l.16.31c.12.29.2.6.28.91.01.08.01.17.03.25.04.25.1.52.1.78 0 .2-.02.37-.04.56a5.03 5.03 0 0 1-.38 1.31l-.09.22a5.02 5.02 0 0 1-4.1 2.91v.81c.55.19.95.68.95 1.29 0 .08-.02.16-.04.25l.7.4a5.06 5.06 0 0 1 4.55-2.1l.38.04c.23.03.46.09.69.16l.06.03a4.6 4.6 0 0 1 1.69.93l.03.04.03.03a4.9 4.9 0 0 1 1.1 1.4c.02.06.06.1.09.16.04.08.06.16.09.25.08.2.16.39.22.6l.03.05.03.2a4.92 4.92 0 0 1 .13 1.05c0 .16-.02.32-.03.47l-.04.38c-.03.2-.1.42-.15.62-.02.05-.02.1-.03.16a7.3 7.3 0 0 0-3.1-9.13c-.15-.08-.31-.14-.47-.21A7.35 7.35 0 0 0 46 15.6zm-1 5.38c-1.47 0-2.8.5-3.9 1.31a4.2 4.2 0 0 0 1.09 1.44c.79-.58 1.76-.9 2.81-.9s2.02.32 2.81.9c.46-.4.84-.88 1.1-1.44A6.55 6.55 0 0 0 45 20.97zm-6.47 5.94-.12.03c-.03.22-.07.45-.07.68a6.57 6.57 0 0 0 4 6.04c.37-.51.6-1.09.72-1.7a4.75 4.75 0 0 1-2.81-4.84 4.3 4.3 0 0 0-1.72-.21zm12.31 0c-.37.02-.73.1-1.09.21l.03.5c0 1.96-1.17 3.6-2.84 4.35.11.6.35 1.18.72 1.69a6.58 6.58 0 0 0 4-6.03c0-.24-.04-.47-.07-.7-.25-.02-.5-.04-.75-.02zm-6.75 1.75-.72.4c.77 1.66.6 3.54-.4 4.97l-.25.31-.1.13c-.23.28-.48.52-.78.75l-.06.03a4.9 4.9 0 0 1-.84.5h-.06l-.44.19a5.05 5.05 0 0 1-2.85.1h-.06a6.58 6.58 0 0 1-1.59-.75l-.28-.26c-.2-.16-.4-.33-.57-.53-.1-.12-.22-.22-.3-.34a7.37 7.37 0 0 0 9.77 2.22l.44-.29c.15.1.28.2.44.28a7.37 7.37 0 0 0 9.78-2.21c-.1.13-.2.22-.31.34-.18.2-.37.37-.57.53l-.15.16-.13.1a5.55 5.55 0 0 1-1.59.74h-.06a5.03 5.03 0 0 1-2.85-.1c-.15-.04-.29-.12-.44-.18h-.03c-.15-.07-.31-.13-.47-.22-.2-.12-.38-.26-.56-.4-.08-.07-.17-.12-.25-.2a5.09 5.09 0 0 1-.78-.9 5 5 0 0 1-.44-4.97l-.72-.4a1.33 1.33 0 0 1-1.77 0z"/><path fill="none" stroke="#231f20" stroke-width=".7" d="M8.76 45 45 8.78 81.24 45 45 81.25z"/><path fill="#231f20" d="m47.48 67.92-1.46.16c-.03-.3-.13-.52-.28-.66a.81.81 0 0 0-.58-.22.99.99 0 0 0-.81.43c-.22.29-.36.88-.42 1.79.38-.45.85-.67 1.4-.67.64 0 1.18.24 1.63.72.44.48.67 1.1.67 1.86 0 .8-.24 1.45-.71 1.94s-1.08.73-1.82.73c-.8 0-1.45-.3-1.96-.93-.51-.61-.77-1.63-.77-3.03 0-1.45.27-2.49.8-3.12a2.58 2.58 0 0 1 2.08-.96c.6 0 1.1.17 1.48.5.4.34.65.82.75 1.46zm-3.42 3.3c0 .48.12.86.34 1.13.23.27.48.4.77.4.28 0 .52-.11.7-.33.19-.22.28-.58.28-1.07 0-.52-.1-.89-.3-1.13a.94.94 0 0 0-.75-.36.94.94 0 0 0-.74.35c-.2.22-.3.56-.3 1zM26.13 42.5c-.37 0-.66.06-.88.19-.22.12-.39.28-.5.5-.11.22-.18.5-.22.81a9.03 9.03 0 0 0 0 2c.04.3.1.6.22.81.11.22.28.38.5.5.22.13.51.19.88.19.31 0 .58-.05.78-.16.2-.1.35-.22.46-.4.12-.18.18-.4.22-.63.04-.23.07-.49.07-.75h-.97a2.61 2.61 0 0 1-.19 1c-.05.09-.11.16-.19.19a.7.7 0 0 1-.25.03.48.48 0 0 1-.25-.06.51.51 0 0 1-.22-.25c-.05-.12-.07-.3-.09-.53-.02-.23-.06-.51-.06-.88 0-.34.01-.64.03-.87.02-.24.05-.42.1-.56.04-.15.1-.25.18-.32.08-.06.2-.1.31-.1.22 0 .36.07.44.23.08.16.13.43.13.78h.96c0-.18 0-.36-.03-.56a1.5 1.5 0 0 0-.18-.57c-.1-.17-.24-.32-.44-.43a1.6 1.6 0 0 0-.82-.16zm8.59 0c-.37 0-.66.06-.88.19a1.2 1.2 0 0 0-.47.5c-.11.22-.21.5-.24.81-.04.3-.04.64-.04 1s0 .7.03 1c.04.3.14.6.26.81.11.22.25.38.46.5.22.13.51.19.88.19.36 0 .66-.06.87-.19.22-.12.39-.28.5-.5.12-.22.19-.5.22-.81a9 9 0 0 0 0-2c-.03-.3-.1-.6-.22-.81a1.22 1.22 0 0 0-.5-.5 1.77 1.77 0 0 0-.87-.19zm7.22 0c-.47 0-.83.11-1.1.34-.26.24-.4.59-.4 1.07 0 .2.04.38.1.53.04.15.1.29.21.4a3.5 3.5 0 0 0 .97.53c.16.06.3.1.4.16.12.05.19.1.26.16a.6.6 0 0 1 .15.22c.03.08.03.17.03.28 0 .2-.03.37-.15.47a.61.61 0 0 1-.41.12c-.13 0-.23 0-.31-.03a.6.6 0 0 1-.22-.16.6.6 0 0 1-.1-.25l-.03-.3v-.13h-.97v.18c0 .45.14.79.38 1.03.24.25.6.38 1.16.38.52 0 .95-.1 1.25-.34.3-.24.43-.62.43-1.13 0-.15 0-.28-.03-.4a1.01 1.01 0 0 0-.15-.35 1.2 1.2 0 0 0-.28-.28 2.72 2.72 0 0 0-.47-.25l-.75-.31c-.21-.09-.35-.18-.41-.28a.7.7 0 0 1-.1-.38 1 1 0 0 1 .04-.22.48.48 0 0 1 .1-.19c.03-.05.1-.09.18-.12.07-.03.14-.03.25-.03.19 0 .32.06.4.19.09.12.13.3.13.53h.94v-.16c0-.23-.05-.43-.13-.6a1.08 1.08 0 0 0-.78-.62 2.36 2.36 0 0 0-.6-.06zm5.12 0c-.46 0-.83.11-1.1.34-.26.24-.4.59-.4 1.07 0 .2.05.38.1.53.05.15.1.29.22.4a3.5 3.5 0 0 0 .97.53c.16.06.29.1.4.16.11.05.18.1.25.16a.6.6 0 0 1 .16.22.8.8 0 0 1 .06.28.6.6 0 0 1-.19.47.61.61 0 0 1-.4.12c-.14 0-.24 0-.32-.03a.5.5 0 0 1-.19-.16.64.64 0 0 1-.12-.25c-.02-.09-.03-.2-.03-.3v-.13h-.97v.18c0 .45.14.79.38 1.03.23.25.6.38 1.15.38.53 0 .96-.1 1.25-.34.3-.24.44-.62.44-1.13 0-.15 0-.28-.03-.4a1.01 1.01 0 0 0-.16-.35 1.2 1.2 0 0 0-.28-.28 2.35 2.35 0 0 0-.44-.25l-.75-.31c-.2-.09-.34-.18-.4-.28a.7.7 0 0 1-.1-.38v-.22a.48.48 0 0 1 .1-.19.47.47 0 0 1 .18-.12c.08-.03.15-.03.25-.03.2 0 .33.06.41.19.08.12.13.3.13.53h.93v-.16c0-.23-.05-.43-.12-.6a1.08 1.08 0 0 0-.78-.62 2.36 2.36 0 0 0-.6-.06zm10.9 0c-.45 0-.82.11-1.09.34-.26.24-.4.59-.4 1.07 0 .2.01.38.06.53.05.15.15.29.25.4.1.12.22.2.38.28.15.1.34.18.56.26a2.86 2.86 0 0 1 .69.31.6.6 0 0 1 .15.22c.03.08.03.17.03.28 0 .2-.06.37-.18.47a.61.61 0 0 1-.41.12c-.13 0-.23 0-.31-.03a.5.5 0 0 1-.19-.16.6.6 0 0 1-.1-.25l-.02-.3v-.13h-.97v.18c0 .45.1.79.34 1.03.24.25.64.38 1.19.38.52 0 .92-.1 1.22-.34.3-.24.43-.62.43-1.13 0-.15 0-.28-.03-.4a1.02 1.02 0 0 0-.15-.35 1.2 1.2 0 0 0-.28-.28 2.35 2.35 0 0 0-.44-.25l-.75-.31c-.2-.09-.35-.18-.4-.28a.7.7 0 0 1-.1-.38 1 1 0 0 1 .03-.22.48.48 0 0 1 .1-.19.4.4 0 0 1 .15-.12c.07-.03.17-.03.28-.03.19 0 .33.06.4.19.09.12.13.3.13.53h.9v-.16c0-.23-.01-.43-.09-.6a1.08 1.08 0 0 0-.78-.62 2.36 2.36 0 0 0-.6-.06zm14.54 0c-.36 0-.66.06-.88.19-.21.12-.35.28-.46.5-.12.22-.22.5-.25.81-.04.3-.03.64-.03 1s0 .7.03 1c.03.3.13.6.25.81.11.22.25.38.47.5.21.13.5.19.87.19.32 0 .58-.05.78-.16.2-.1.36-.22.47-.4.11-.18.18-.4.22-.63.04-.23.06-.49.06-.75h-.97c0 .26 0 .47-.03.63-.03.16-.07.28-.12.37a.49.49 0 0 1-.22.19.54.54 0 0 1-.22.03.6.6 0 0 1-.28-.06c-.08-.04-.14-.13-.19-.25-.05-.12-.1-.3-.13-.53a11.6 11.6 0 0 1 0-1.75c.02-.24.05-.42.1-.57.04-.14.1-.24.19-.3a.4.4 0 0 1 .28-.1c.22 0 .38.06.47.22.08.16.12.43.12.78H74c0-.18 0-.36-.03-.56a1.5 1.5 0 0 0-.19-.57c-.1-.17-.24-.32-.44-.43a1.8 1.8 0 0 0-.84-.16zm-59.84.1v4.8h.96v-4.8h-.96zm1.68 0v4.8h.88v-3.37h.03l1.19 3.38h1.1v-4.82h-.88v3.32h-.04l-1.15-3.32h-1.13zm3.88 0v4.8h.97v-2.09h1.62v-.78H19.2v-1.16h1.72v-.78h-2.7zm3.12 0v4.8h2.75v-.77h-1.78V45.3h1.63v-.78H22.3v-1.16h1.72v-.78h-2.69zm6.6 0v.77H29v4.04h.97v-4.03h1.06v-.79h-3.1zm3.56 0v4.8h.97v-4.8h-.97zm5.38 0v3.34c0 .32.03.61.12.81.09.2.2.35.34.47.15.11.32.18.5.22a2.86 2.86 0 0 0 1.16 0 1.2 1.2 0 0 0 .84-.72c.09-.2.13-.48.13-.78v-3.35H39v3.35c0 .12-.02.24-.03.34-.02.1-.05.2-.1.28a.37.37 0 0 1-.15.16.56.56 0 0 1-.28.06.67.67 0 0 1-.31-.06.39.39 0 0 1-.16-.16.86.86 0 0 1-.1-.28c-.01-.1-.03-.22-.03-.34v-3.35h-.97zm12.28 0v3.34c0 .32.04.61.12.81.09.2.2.35.34.47.15.11.32.18.5.22a2.56 2.56 0 0 0 1.13 0 1.2 1.2 0 0 0 .84-.72c.09-.2.13-.48.13-.78v-3.35h-.97v3.35c0 .12-.02.24-.03.34-.02.1-.05.2-.1.28a.37.37 0 0 1-.15.16.56.56 0 0 1-.28.06.54.54 0 0 1-.28-.06.45.45 0 0 1-.2-.16.86.86 0 0 1-.09-.28V42.6h-.96zm3.68 0v4.8h1.63c.28 0 .53-.04.72-.12.19-.08.35-.15.47-.28.12-.13.2-.3.25-.47.05-.17.06-.34.06-.53 0-.32-.06-.59-.22-.78a.99.99 0 0 0-.66-.34.99.99 0 0 0 .57-.41c.12-.19.15-.4.15-.66 0-.23-.02-.43-.1-.6a.92.92 0 0 0-.27-.37c-.12-.1-.27-.14-.44-.18a2.2 2.2 0 0 0-.53-.07h-1.63zm7 0v.77h1.07v4.04h.97v-4.03h1.03v-.79h-3.07zm4.44 0L63 47.4h1l.25-1.02h1.28l.22 1.03h1l-1.28-4.82h-1.19zm2.81 0v4.8H68v-3.37l1.19 3.38h1.1v-4.82h-.88v3.32l-1.2-3.32H67.1zm7.5 0v4.8h2.75v-.77h-1.78V45.3h1.63v-.78h-1.63v-1.16h1.72v-.78H74.6zm-39.87.62c.14 0 .25.03.34.1a.6.6 0 0 1 .22.3c.05.15.08.34.1.57a11.16 11.16 0 0 1 0 1.62c-.02.23-.05.42-.1.56a.64.64 0 0 1-.22.32.6.6 0 0 1-.34.1.56.56 0 0 1-.34-.1c-.1-.07-.15-.17-.2-.31a2.38 2.38 0 0 1-.09-.57 11.21 11.21 0 0 1 0-1.62c.02-.23.05-.42.1-.56.04-.15.1-.25.19-.32.08-.06.2-.1.34-.1zm19.1.1h.34c.24 0 .41.02.53.12.11.1.15.27.15.5 0 .23-.06.4-.18.5-.13.1-.3.12-.57.12h-.28v-1.25zm11.05.12.47 2.15h-.93l.47-2.15zm-11.06 1.81h.4c.12 0 .23 0 .32.03.1.02.15.07.22.13.07.05.12.12.16.22.03.09.06.2.06.34 0 .28-.08.46-.22.56a.94.94 0 0 1-.56.16h-.38v-1.44zm-24.25 3.88a.77.77 0 0 0-.37.12.67.67 0 0 0-.28.28.94.94 0 0 0-.1.44c0 .15 0 .27.07.4.05.14.14.25.25.32.1.07.26.12.43.12.17 0 .32-.06.44-.15.12-.1.17-.23.22-.41l-.22-.03c-.03.13-.07.24-.16.31a.45.45 0 0 1-.3.1c-.1 0-.17-.05-.26-.1a.42.42 0 0 1-.19-.22.9.9 0 0 1-.06-.34c0-.1 0-.21.03-.31.04-.1.1-.2.19-.25.08-.06.19-.1.31-.1.11 0 .18.04.25.1a.5.5 0 0 1 .19.25l.19-.07a.62.62 0 0 0-.22-.34.66.66 0 0 0-.4-.13zm3 0c-.1 0-.22.02-.31.06a.38.38 0 0 0-.19.15.51.51 0 0 0-.1.25c0 .08.03.13.07.2a.5.5 0 0 0 .19.15c.06.03.16.06.31.1.15.03.24.07.28.09.07.02.1.05.13.09.03.04.06.07.06.12 0 .05-.03.09-.06.13a.25.25 0 0 1-.13.1c-.06.02-.14.05-.22.05a.63.63 0 0 1-.25-.06.34.34 0 0 1-.15-.12.4.4 0 0 1-.06-.19h-.22c0 .1.03.23.09.31.06.09.15.15.25.19.1.04.2.06.34.06.12 0 .22-.02.32-.06a.51.51 0 0 0 .22-.19.45.45 0 0 0 .06-.25.36.36 0 0 0-.06-.22.41.41 0 0 0-.2-.15 2 2 0 0 0-.37-.13c-.17-.04-.27-.05-.31-.1a.21.21 0 0 1-.06-.15c0-.06.03-.1.1-.15.05-.05.14-.1.27-.1s.22.04.28.1c.07.05.09.11.1.22h.22c0-.1-.05-.18-.1-.26-.05-.07-.1-.14-.19-.18a.79.79 0 0 0-.3-.06zm3.78 0a.8.8 0 0 0-.56.24.87.87 0 0 0-.22.63c0 .14.03.28.1.4.06.13.13.21.25.29.12.07.25.12.4.12.14 0 .29-.02.4-.1a.73.73 0 0 0 .29-.3c.07-.13.1-.28.1-.44a.99.99 0 0 0-.1-.44.68.68 0 0 0-.28-.28.7.7 0 0 0-.38-.13zm10.28 0a.83.83 0 0 0-.4.12.6.6 0 0 0-.28.28.98.98 0 0 0-.13.44c0 .16.06.3.13.44.06.12.15.21.28.28.13.07.28.12.44.12a.97.97 0 0 0 .65-.25v-.6h-.69v.2h.47v.28a.51.51 0 0 1-.18.12.78.78 0 0 1-.28.06.58.58 0 0 1-.29-.09.49.49 0 0 1-.22-.22.71.71 0 0 1-.09-.34c0-.12.02-.21.06-.31a.79.79 0 0 1 .13-.2.4.4 0 0 1 .16-.09.64.64 0 0 1 .24-.06c.09 0 .16.04.22.06.07.03.12.05.16.1.04.05.07.1.1.19l.18-.03a.8.8 0 0 0-.12-.29.51.51 0 0 0-.22-.15.82.82 0 0 0-.31-.06zm3.85 0c-.23 0-.42.1-.56.24a.87.87 0 0 0-.22.63c0 .14.03.28.1.4.05.13.15.21.27.29.12.07.26.12.4.12.15 0 .26-.02.38-.1a.73.73 0 0 0 .28-.3c.07-.13.1-.28.1-.44a.99.99 0 0 0-.1-.44.6.6 0 0 0-.24-.28.8.8 0 0 0-.41-.13zm11.31 0a.95.95 0 0 0-.44.12.6.6 0 0 0-.28.28.99.99 0 0 0-.1.44c0 .16.04.3.1.44.07.12.15.21.28.28a.93.93 0 0 0 .78.06c.12-.04.24-.1.35-.19v-.6h-.69v.2h.47v.28a.84.84 0 0 1-.22.12.63.63 0 0 1-.25.06.74.74 0 0 1-.31-.09.49.49 0 0 1-.22-.22.72.72 0 0 1-.06-.34c0-.12.02-.21.06-.31a.62.62 0 0 1 .1-.2c.04-.04.11-.06.18-.09a.64.64 0 0 1 .25-.06c.08 0 .15.04.22.06.07.03.12.05.16.1.03.05.07.1.09.19l.19-.03a.8.8 0 0 0-.13-.29.51.51 0 0 0-.22-.15.82.82 0 0 0-.3-.06zm-35.75.03v1.62h.22v-1.62h-.22zm.6 0v1.62h.18V49.5l.85 1.28h.21v-1.62h-.18v1.28l-.85-1.28h-.21zm4.3 0-.62 1.62h.22l.19-.5h.66l.18.5h.25l-.65-1.62h-.22zm2.57 0v1.62h1.19v-.19h-.97v-.56h.87v-.19h-.87v-.5h.94v-.18H33.5zm3.88 0v1.62h.21v-.75h.75v-.19h-.75v-.5h.88v-.18h-1.1zm2 0v1.62h.56c.1 0 .2-.01.28-.03a.7.7 0 0 0 .19-.1c.05-.03.1-.06.15-.12.05-.06.07-.15.1-.25a1.48 1.48 0 0 0-.03-.69.67.67 0 0 0-.2-.28.5.5 0 0 0-.21-.12 1.2 1.2 0 0 0-.28-.03h-.56zm2.06 0-.63 1.62h.22l.19-.5h.69l.18.5h.22l-.65-1.62h-.22zm1.06 0v1.62h.19v-1.37l.47 1.37h.18l.47-1.34v1.34h.22v-1.62h-.28l-.4 1.12c-.05.11-.05.2-.07.25-.01-.05-.06-.11-.1-.22l-.37-1.15h-.31zm2.31 0-.62 1.62h.25l.15-.5h.7l.18.5h.25l-.66-1.62h-.25zm2.81 0v1.62h1.22v-.19h-1v-.56h.91v-.19h-.9v-.5h.96v-.18h-1.19zm3.88 0v1.62h.22v-.72h.37c.04.01.07.04.1.06l.1.1.15.22.22.34h.28l-.28-.44a1.17 1.17 0 0 0-.2-.22c-.02-.02-.06-.06-.12-.09.16-.02.27-.05.35-.12.07-.08.1-.2.1-.32a.37.37 0 0 0-.07-.22c-.05-.07-.08-.12-.16-.15a.99.99 0 0 0-.34-.06h-.72zm2.25 0v1.62h1v-.19h-.78v-1.43h-.22zm1.25 0v1.62h1.22v-.19h-1v-.56h.9v-.19h-.9v-.5h.97v-.18H55zm1.94 0-.6 1.62h.22l.19-.5h.66l.18.5h.25l-.65-1.62h-.25zm1.06 0v1.62h.22v-.56l.25-.25.6.81h.27l-.72-.97.7-.65h-.29l-.81.8v-.8H58zm1.34 1.62h.22l.19-.5h.66l.18.5h.25l-.65-1.62h-.22l-.63 1.62zm3.44-1.62v1.62h1.19v-.19H63v-.56h.88v-.19H63v-.5h.94v-.18h-1.16zm-26.44.15c.11 0 .2.04.28.1.09.05.15.12.2.22.04.1.05.2.05.34a.7.7 0 0 1-.15.47.55.55 0 0 1-.4.19.47.47 0 0 1-.38-.16.67.67 0 0 1-.16-.47c0-.24.05-.43.16-.53.1-.1.25-.16.4-.16zm14.13 0c.1 0 .2.04.28.1.09.05.14.12.19.22.04.1.06.2.06.34 0 .2-.05.35-.16.47-.1.11-.21.19-.37.19a.54.54 0 0 1-.4-.16.67.67 0 0 1-.16-.47c0-.24.04-.43.15-.53.11-.1.26-.16.4-.16zm-19.44.03.13.32.15.47h-.53l.19-.47c.04-.1.04-.21.06-.32zm8.56 0h.35c.12 0 .19.01.25.03.08.04.16.1.22.2.05.08.06.23.06.4 0 .12 0 .23-.03.31a.45.45 0 0 1-.13.19c-.03.03-.06.07-.12.1a.83.83 0 0 1-.25.02h-.35v-1.25zm1.97 0c.03.1.04.18.1.32l.18.47h-.56l.19-.47.1-.32zm3.38 0c.02.1.04.18.1.32l.18.47h-.56l.18-.47c.04-.1.08-.21.1-.32zm6.78 0h.5c.12 0 .22.02.28.07.06.05.06.1.06.18a.3.3 0 0 1-.03.16.24.24 0 0 1-.12.1.62.62 0 0 1-.22.02h-.47v-.53zm5.34 0 .13.32.15.47h-.53l.16-.47.1-.32zm3 0 .13.32.15.47h-.53l.16-.47.1-.32zm-8.84 2.16a.67.67 0 0 0-.53.22.95.95 0 0 0-.22.66c0 .14.03.24.1.37a.7.7 0 0 0 .65.44c.14 0 .28-.06.4-.13a.65.65 0 0 0 .29-.28c.06-.13.09-.27.09-.44a.99.99 0 0 0-.1-.43.68.68 0 0 0-.27-.28.8.8 0 0 0-.41-.13zm-18.19.03v1.63h.22v-1.63h-.22zm.6 0v1.63h.21v-1.38l.44 1.38h.22l.47-1.35v1.35h.19v-1.63h-.28l-.38 1.13-.1.25c-.01-.06-.05-.12-.09-.22l-.37-1.16h-.31zm1.87 0v1.63h.22v-1.38l.47 1.38h.19l.46-1.35v1.35h.2v-1.63h-.29l-.38 1.13-.09.25c-.01-.06-.06-.12-.1-.22l-.37-1.16h-.31zm1.88 0v1.63h1.21v-.2h-1v-.55h.91v-.2h-.9v-.5h.96v-.18h-1.19zm1.5 0v1.63h.59c.1 0 .17-.02.25-.03a.7.7 0 0 0 .19-.1c.05-.03.1-.06.15-.12a.9.9 0 0 0 .13-.25c.03-.1.03-.2.03-.32 0-.14-.02-.3-.06-.4a.57.57 0 0 0-.2-.25.61.61 0 0 0-.24-.13 1.2 1.2 0 0 0-.28-.03h-.56zm1.68 0v1.63h.19v-1.63h-.19zm1.03 0-.62 1.63h.22l.19-.5h.65l.19.5h.25l-.66-1.63h-.22zm.94 0v.19h.53v1.44h.19v-1.44h.53v-.19h-1.25zm1.5 0v1.63h1.19v-.2h-1v-.55h.9v-.2h-.9v-.5h.97v-.18h-1.16zm1.47 0v1.63h1v-.2h-.78v-1.43h-.22zm1.1 0 .62.94v.69h.22v-.7l.65-.93h-.25l-.3.47-.2.28-.15-.25-.31-.5h-.29zm2.3 0v1.63h.2v-1.28l.84 1.28h.22v-1.63h-.2v1.28l-.84-1.28h-.21zm3.26 0v.19h.53v1.44h.22v-1.44h.53v-.19h-1.28zm1.53 0v1.63h.22v-1.63h-.22zm.6 0v1.63h.21v-.75h.75v-.2h-.75v-.5h.88v-.18h-1.1zm1.18 0 .62.94v.69h.22v-.7l.66-.93h-.25l-.31.47-.2.28c-.04-.09-.09-.16-.15-.25l-.31-.5h-.28zm-4.25.16c.1 0 .23.04.31.1.09.05.14.11.19.21.04.1.06.21.06.34 0 .21-.05.36-.16.47a.55.55 0 0 1-.4.19c-.16 0-.27-.08-.38-.19a.6.6 0 0 1-.15-.44c0-.24.05-.42.15-.53.11-.1.23-.15.38-.15zm-12.13.03h.35c.12 0 .22 0 .28.03.08.03.13.1.19.19.05.09.09.24.09.4 0 .13 0 .2-.03.28a.59.59 0 0 1-.13.22.42.42 0 0 1-.15.1.83.83 0 0 1-.25.03h-.35v-1.25zm2.6 0c.02.09.07.18.12.31l.16.47h-.53l.15-.5c.04-.1.08-.18.1-.28zm-5.03 2.16a.74.74 0 0 0-.66.37.94.94 0 0 0-.1.44c0 .15.04.3.1.44.06.13.14.24.25.3.1.08.23.1.4.1a.7.7 0 0 0 .44-.12c.12-.1.2-.23.25-.41l-.22-.06a.57.57 0 0 1-.18.31c-.09.07-.16.13-.28.13-.1 0-.2-.05-.28-.1a.42.42 0 0 1-.2-.22c-.03-.1-.05-.24-.05-.37a1 1 0 0 1 .06-.31c.03-.1.07-.16.15-.22.09-.06.2-.1.32-.1.1 0 .2.04.28.1.07.05.12.13.15.25l.22-.07a.66.66 0 0 0-.25-.34.66.66 0 0 0-.4-.13zm17.9 0a.74.74 0 0 0-.56.21.87.87 0 0 0-.22.63c0 .14.03.28.1.4.06.13.16.24.28.32.12.07.25.1.4.1.14 0 .29-.04.4-.1a.59.59 0 0 0 .26-.28.96.96 0 0 0 .12-.44.99.99 0 0 0-.09-.44.68.68 0 0 0-.28-.28.8.8 0 0 0-.4-.13zm-25.1.03v1.62h.23v-.66h.4c.23 0 .39-.06.47-.15a.48.48 0 0 0 .07-.56.39.39 0 0 0-.13-.16.43.43 0 0 0-.19-.06c-.05-.01-.14-.03-.25-.03h-.6zm1.5 0v.93c0 .17.03.31.07.41.04.1.1.17.19.22.1.05.22.06.37.06.16 0 .28 0 .38-.06.1-.06.18-.16.22-.25.03-.1.03-.21.03-.38v-.93h-.19v.93c0 .2-.06.34-.12.41-.07.07-.16.1-.32.1-.09 0-.18 0-.25-.04a.29.29 0 0 1-.12-.15.97.97 0 0 1-.03-.32v-.93h-.22zm1.63 0v1.62h.6a.9.9 0 0 0 .25-.03.56.56 0 0 0 .19-.1c.04-.03.09-.09.12-.15s.03-.11.03-.19c0-.1 0-.18-.06-.25a.42.42 0 0 0-.22-.15c.08-.04.12-.1.16-.16a.35.35 0 0 0 .06-.19.42.42 0 0 0-.06-.22.45.45 0 0 0-.2-.12.65.65 0 0 0-.27-.06h-.6zm1.5 0v1.62h1v-.22h-.8v-1.4h-.2zm1.28 0v1.62h.22v-1.62h-.22zm2.85 0v1.62h.22v-.78h.84v.78h.22v-1.62h-.22v.65h-.84v-.65h-.22zm1.62 0v1.62h1.22v-.22h-1v-.53h.88v-.19h-.88v-.5H41v-.18h-1.16zm1.94 0-.62 1.62h.25l.15-.5h.69l.19.5h.25l-.66-1.62h-.25zm1.06 0v1.62h1v-.22h-.78v-1.4h-.22zm1.13 0v.18h.53v1.44h.22V54.1h.53v-.18h-1.28zm1.5 0v1.62h.22v-.78h.84v.78h.22v-1.62h-.22v.65h-.84v-.65h-.22zm2.69 0-.6 1.62h.22l.16-.5h.69l.18.5h.25l-.65-1.62h-.25zm1.06 0v.93c0 .17.02.31.06.41.04.1.12.17.22.22.1.05.22.06.38.06.15 0 .27 0 .37-.06.1-.06.15-.16.19-.25.03-.1.06-.21.06-.38v-.93h-.22v.93c0 .2-.03.34-.1.41-.06.07-.18.1-.34.1-.09 0-.15 0-.22-.04a.29.29 0 0 1-.12-.15.83.83 0 0 1-.06-.32v-.93h-.22zm1.53 0v.18h.5v1.44h.22V54.1H52v-.18h-1.25zm1.5 0v1.62h.19v-.78h.84v.78h.22v-1.62h-.22v.65h-.84v-.65h-.19zm3.38 0v1.62h.18v-.72h.38l.1.03.12.13.15.22.19.34h.28l-.28-.44a1.18 1.18 0 0 0-.19-.22l-.12-.09a.57.57 0 0 0 .34-.16.4.4 0 0 0 .13-.28.48.48 0 0 0-.07-.25.38.38 0 0 0-.18-.15c-.08-.03-.2-.03-.35-.03h-.69zm1.65 0v1.62h.19v-1.62h-.19zm.47 0v.18h.53v1.44h.19V54.1H59v-.18h-1.25zm1.31 0 .63.93v.7h.22v-.7l.62-.93h-.25l-.31.47c-.07.1-.1.2-.16.28l-.15-.25-.35-.5h-.25zm-17.15.15c.02.09.04.21.09.35l.19.43h-.56l.18-.47c.04-.1.08-.2.1-.3zm6.37 0 .13.35.15.43H48l.19-.47.1-.3zm6.28 0c.1 0 .2.04.28.1.09.05.15.12.2.22.04.1.09.2.09.34a.7.7 0 0 1-.16.47.55.55 0 0 1-.4.19.6.6 0 0 1-.56-.63c-.01-.24.07-.43.18-.53a.5.5 0 0 1 .37-.16zm-24.87.03h.4c.1 0 .16.03.2.03.05.02.08.05.12.1.03.05.06.09.06.16 0 .09-.04.16-.1.21a.4.4 0 0 1-.28.1h-.4v-.6zm3.1 0h.34c.11 0 .17.02.21.03.05.02.1.03.13.07.02.04.03.1.03.15 0 .06 0 .12-.03.16-.03.04-.07.05-.13.06a.8.8 0 0 1-.22.03h-.34v-.5zm23.02 0h.53c.12 0 .2.02.25.07.06.05.1.1.1.18 0 .06-.04.12-.06.16a.24.24 0 0 1-.13.1.62.62 0 0 1-.22.02h-.47v-.53zm-23.03.7h.38c.1 0 .2 0 .25.02.05.02.1.05.12.1.03.04.03.1.03.15 0 .05 0 .09-.03.13-.02.04-.03.07-.06.1l-.13.02h-.55v-.53z"/></svg>