<?xml version="1.0" encoding="UTF-8" standalone="no"?>
<!-- Created with Inkscape (http://www.inkscape.org/) -->

<svg
   xmlns:dc="http://purl.org/dc/elements/1.1/"
   xmlns:cc="http://creativecommons.org/ns#"
   xmlns:rdf="http://www.w3.org/1999/02/22-rdf-syntax-ns#"
   xmlns:svg="http://www.w3.org/2000/svg"
   xmlns="http://www.w3.org/2000/svg"
   version="1.1"
   width="90"
   height="90"
   id="svg6792">
  <defs
     id="defs6794" />
  <rect
     width="60"
     height="60"
     rx="0"
     ry="0"
     x="33.6395"
     y="-30"
     transform="matrix(0.707107,0.707107,-0.707107,0.707107,0,0)"
     id="rect6763"
     style="fill:#ffffff;stroke:#231f20;stroke-width:0.7" />
  <path
     d="M 42.4192,67.6353 42.4192,66.2334 47.5808,66.2334 47.5808,67.3291 C 47.1547,67.7481 46.7214,68.3496 46.281,69.1338 45.8406,69.918 45.5049,70.7514 45.2739,71.634 45.043,72.5167 44.9293,73.3053 44.9329,74 L 43.4773,74 C 43.5024,72.9115 43.727,71.8014 44.1514,70.6699 44.5757,69.5384 45.1423,68.5269 45.8513,67.6353 z"
     id="path2993"
     style="fill:#231f20;stroke:none;" />
  <path
     d="M 74.75,38.5 45,8.75 15.25,38.5"
     id="rect3006"
     style="fill:#ffdd00;stroke:#231f20;stroke-width:0.7;stroke-miterlimit:4;stroke-opacity:1;stroke-dasharray:none" />
  <rect
     width="51.25"
     height="51.25"
     x="-25.6255"
     y="38.0155"
     transform="matrix(0.707107,-0.707107,0.707107,0.707107,0,0)"
     id="rect6769"
     style="fill:none;stroke:#231f20;stroke-width:0.7" />
  <path
     d="M 40.2067,17.805 C 37.3195,19.456 35.3613,22.551 35.3257,26.106 L 41.4927,26.106 C 41.4927,24.805 42.1951,23.674 43.2464,23.066 L 40.2067,17.805 z M 49.7933,17.805 46.7536,23.066 C 47.804,23.674 48.5073,24.805 48.5073,26.106 L 54.6743,26.106 C 54.6369,22.551 52.6824,19.456 49.7933,17.805 z M 45,24.06 C 43.8664,24.06 42.9541,24.973 42.9541,26.106 42.9541,27.236 43.8664,28.152 45,28.152 46.1336,28.152 47.0459,27.236 47.0459,26.106 47.0459,24.973 46.1336,24.06 45,24.06 z M 43.2464,29.145 40.119,34.552 C 41.551,35.39 43.2202,35.868 45,35.868 46.7817,35.868 48.449,35.39 49.881,34.552 L 46.7536,29.145 C 46.2355,29.445 45.6425,29.613 45,29.613 44.3575,29.613 43.7645,29.445 43.2464,29.145 z"
     id="path3872"
     style="fill:#231f20;stroke:none" />
  <path
     d="M 39.7188,40.7188 C 39.0975,40.7188 38.618,40.8517 38.25,41.0625 37.8821,41.2733 37.6018,41.5619 37.4062,41.9375 37.2107,42.3132 37.0887,42.7559 37.0312,43.2812 36.9738,43.8064 36.9375,44.3791 36.9375,45 36.9375,45.621 36.9738,46.1937 37.0312,46.7188 37.0887,47.244 37.2107,47.6867 37.4062,48.0625 37.6018,48.4382 37.8821,48.7267 38.25,48.9375 38.618,49.1483 39.0975,49.2812 39.7188,49.2812 40.3396,49.2812 40.8509,49.1483 41.2188,48.9375 41.5866,48.7267 41.8669,48.4382 42.0625,48.0625 42.258,47.6867 42.3801,47.244 42.4375,46.7188 42.4949,46.1937 42.5312,45.621 42.5312,45 42.5312,44.3791 42.4949,43.8064 42.4375,43.2812 42.3801,42.7559 42.258,42.3132 42.0625,41.9375 41.8669,41.5619 41.5866,41.2733 41.2188,41.0625 40.8509,40.8517 40.3396,40.7188 39.7188,40.7188 z M 52.5312,40.7188 C 51.9101,40.7188 51.4304,40.8517 51.0625,41.0625 50.6946,41.2733 50.4143,41.5619 50.2188,41.9375 50.0232,42.3132 49.87,42.7559 49.8125,43.2812 49.7551,43.8064 49.75,44.3791 49.75,45 49.75,45.621 49.7551,46.1937 49.8125,46.7188 49.87,47.244 50.0232,47.6867 50.2188,48.0625 50.4143,48.4382 50.6946,48.7267 51.0625,48.9375 51.4304,49.1483 51.9101,49.2812 52.5312,49.2812 53.0755,49.2812 53.5339,49.1764 53.875,49 54.2161,48.8236 54.4684,48.584 54.6562,48.2812 54.8441,47.9785 54.9622,47.6174 55.0312,47.2188 55.1003,46.82 55.1562,46.4136 55.1562,45.9688 L 53.5,45.9688 C 53.5,46.4136 53.4599,46.7591 53.4062,47.0312 53.3525,47.3034 53.2795,47.5379 53.1875,47.6875 53.0956,47.837 53.0015,47.9188 52.875,47.9688 52.7486,48.0185 52.6145,48.0625 52.4688,48.0625 52.2923,48.0625 52.1341,48.0102 52,47.9375 51.8659,47.8647 51.7445,47.7108 51.6562,47.5 51.568,47.2892 51.5111,47.0083 51.4688,46.625 51.4265,46.2416 51.4062,45.746 51.4062,45.125 51.4062,44.5422 51.4068,44.0275 51.4375,43.625 51.4683,43.2224 51.5172,42.9053 51.5938,42.6562 51.6703,42.4072 51.7721,42.2363 51.9062,42.125 52.0404,42.0138 52.2304,41.9375 52.4375,41.9375 52.813,41.9375 53.0769,42.1027 53.2188,42.375 53.3606,42.6472 53.4375,43.0583 53.4375,43.6562 L 55.0625,43.6562 C 55.0625,43.3573 55.0421,43.06 55,42.7188 54.9579,42.3775 54.8562,42.0451 54.6875,41.75 54.5188,41.4548 54.2786,41.2229 53.9375,41.0312 53.5963,40.8397 53.1216,40.7188 52.5312,40.7188 z M 14.75,40.9062 14.75,49.0938 16.4062,49.0938 16.4062,45.625 17.2812,45.625 C 17.6263,45.625 17.8855,45.7223 18.0312,45.9062 18.1768,46.0904 18.2348,46.3342 18.25,46.6562 L 18.3125,48.25 C 18.3202,48.4112 18.3207,48.5694 18.3438,48.7188 18.3667,48.8681 18.4158,48.9786 18.5,49.0938 L 20.3125,49.0938 20.3125,49.0312 C 20.1592,48.9471 20.0422,48.7925 20,48.5625 19.9577,48.3325 19.945,47.9996 19.9375,47.5625 19.9298,47.1255 19.9095,46.7678 19.875,46.4688 19.8405,46.1698 19.7795,45.9142 19.6875,45.7188 19.5954,45.5232 19.4499,45.3847 19.2812,45.2812 19.1127,45.1778 18.9088,45.1008 18.625,45.0625 L 18.625,45.0312 C 19.0927,44.9316 19.4338,44.7239 19.6562,44.375 19.8787,44.0262 20,43.5519 20,43 20,42.2871 19.7896,41.7552 19.4062,41.4062 19.0229,41.0575 18.5025,40.9062 17.8125,40.9062 L 14.75,40.9062 z M 22.75,40.9062 20.5625,49.0938 22.2812,49.0938 22.6562,47.375 24.8438,47.375 25.25,49.0938 26.9688,49.0938 24.7812,40.9062 22.75,40.9062 z M 27.625,40.9062 27.625,49.0938 30.2188,49.0938 C 30.7706,49.0938 31.2333,49.0124 31.5938,48.8438 31.9542,48.675 32.254,48.4388 32.4688,48.0938 32.6835,47.7488 32.8182,47.3103 32.9062,46.7812 32.9943,46.2523 33.0625,45.6033 33.0625,44.875 33.0625,44.2692 33.0065,43.7407 32.9375,43.25 32.8685,42.7594 32.758,42.3177 32.5625,41.9688 32.367,41.62 32.0713,41.3753 31.7188,41.1875 31.3662,40.9997 30.9188,40.9062 30.3438,40.9062 L 27.625,40.9062 z M 34.2188,40.9062 34.2188,49.0938 35.875,49.0938 35.875,40.9062 34.2188,40.9062 z M 45.125,40.9062 42.9375,49.0938 44.6562,49.0938 45.0312,47.375 47.2188,47.375 47.5938,49.0938 49.3438,49.0938 47.1562,40.9062 45.125,40.9062 z M 55.6562,40.9062 55.6562,42.25 57.4375,42.25 57.4375,49.0938 59.0938,49.0938 59.0938,42.25 60.9062,42.25 60.9062,40.9062 55.6562,40.9062 z M 61.6875,40.9062 61.6875,49.0938 63.3438,49.0938 63.3438,40.9062 61.6875,40.9062 z M 64.0312,40.9062 65.9375,49.0938 68.0625,49.0938 69.9375,40.9062 68.2188,40.9062 67,46.9688 66.9688,46.9688 65.8125,40.9062 64.0312,40.9062 z M 70.5625,40.9062 70.5625,49.0938 75.25,49.0938 75.25,47.75 72.2188,47.75 72.2188,45.5312 74.9688,45.5312 74.9688,44.1875 72.2188,44.1875 72.2188,42.25 75.1562,42.25 75.1562,40.9062 70.5625,40.9062 z M 39.7188,41.9375 C 39.9639,41.9375 40.163,42.0138 40.3125,42.125 40.462,42.2363 40.5757,42.4109 40.6562,42.6562 40.7368,42.9016 40.8169,43.2104 40.8438,43.5938 40.8707,43.9771 40.875,44.4481 40.875,45 40.875,45.5519 40.8707,46.0191 40.8438,46.4062 40.8169,46.7934 40.7368,47.1024 40.6562,47.3438 40.5757,47.5853 40.462,47.7639 40.3125,47.875 40.163,47.9862 39.9639,48.0625 39.7188,48.0625 39.4733,48.0625 39.3058,47.9862 39.1562,47.875 39.0068,47.7639 38.8618,47.5853 38.7812,47.3438 38.7007,47.1024 38.6519,46.7934 38.625,46.4062 38.5981,46.0191 38.5938,45.5519 38.5938,45 38.5938,44.4481 38.5981,43.9771 38.625,43.5938 38.6519,43.2104 38.7007,42.9016 38.7812,42.6562 38.8618,42.4109 39.0068,42.2363 39.1562,42.125 39.3058,42.0138 39.4733,41.9375 39.7188,41.9375 z M 16.4062,42.125 17.1875,42.125 C 17.9543,42.125 18.3438,42.491 18.3438,43.25 18.3438,43.6948 18.2147,43.9998 18,44.1875 17.7853,44.3753 17.4924,44.4688 17.0938,44.4688 L 16.4062,44.4688 16.4062,42.125 z M 29.2812,42.125 29.9688,42.125 C 30.2831,42.125 30.5622,42.1624 30.75,42.2812 30.9378,42.4002 31.0603,42.5749 31.1562,42.8125 31.2522,43.0501 31.313,43.3699 31.3438,43.7188 31.3743,44.0677 31.4062,44.4698 31.4062,44.9375 31.4062,45.4971 31.3782,45.9679 31.3438,46.3438 31.3092,46.7194 31.2286,47.02 31.125,47.25 31.0215,47.48 30.8989,47.6503 30.7188,47.75 30.5387,47.8496 30.3148,47.875 30.0312,47.875 L 29.2812,47.875 29.2812,42.125 z M 23.75,42.3125 23.7812,42.3125 24.5625,46 22.9688,46 23.75,42.3125 z M 46.125,42.3125 46.1562,42.3125 46.9375,46 45.3438,46 46.125,42.3125 z"
     id="path2996"
     style="fill:#231f20;stroke:none;" />
</svg>
