<?xml version="1.0" encoding="UTF-8" standalone="no"?>
<!-- Created with Inkscape (http://www.inkscape.org/) -->

<svg
   xmlns:dc="http://purl.org/dc/elements/1.1/"
   xmlns:cc="http://creativecommons.org/ns#"
   xmlns:rdf="http://www.w3.org/1999/02/22-rdf-syntax-ns#"
   xmlns:svg="http://www.w3.org/2000/svg"
   xmlns="http://www.w3.org/2000/svg"
   version="1.1"
   width="90"
   height="90"
   id="svg6792">
  <defs
     id="defs6794" />
  <rect
     width="60"
     height="60"
     rx="0"
     ry="0"
     x="33.6395"
     y="-30"
     transform="matrix(0.707107,0.707107,-0.707107,0.707107,0,0)"
     id="rect6763"
     style="fill:#ffdd00;stroke:#231f20;stroke-width:0.7" />
  <rect
     width="51.25"
     height="51.25"
     x="-25.6255"
     y="38.0155"
     transform="matrix(0.707107,-0.707107,0.707107,0.707107,0,0)"
     id="rect6769"
     style="fill:none;stroke:#231f20;stroke-width:0.7" />
  <path
     d="M 48.875,65.9688 C 48.166,65.9688 47.5664,66.1383 47.0938,66.5 46.6212,66.8616 46.3395,67.4506 46.25,68.2812 L 47.75,68.4375 C 47.7786,67.9971 47.9076,67.6898 48.0938,67.5 48.2799,67.3102 48.5287,67.2188 48.8438,67.2188 49.1624,67.2188 49.4128,67.2879 49.5938,67.4688 49.7745,67.6495 49.875,67.9134 49.875,68.25 49.875,68.5544 49.7702,68.876 49.5625,69.1875 49.4085,69.4131 48.9929,69.835 48.3125,70.4688 47.4675,71.2529 46.8802,71.8693 46.5938,72.3438 46.3073,72.8183 46.151,73.3451 46.0938,73.875 L 51.375,73.875 51.375,72.4688 48.375,72.4688 C 48.4538,72.3327 48.5604,72.1745 48.6875,72.0312 48.8146,71.8881 49.1174,71.6244 49.5938,71.1875 50.0699,70.7507 50.4111,70.389 50.5938,70.1562 50.8695,69.8054 51.0604,69.4767 51.1875,69.1562 51.3146,68.8358 51.375,68.5108 51.375,68.1562 51.375,67.5332 51.1628,67.0126 50.7188,66.5938 50.2747,66.1748 49.652,65.9688 48.875,65.9688 z M 39.5938,66.0938 38.8125,70.1875 40.0312,70.375 C 40.3749,69.9919 40.7542,69.8125 41.1875,69.8125 41.5348,69.8125 41.8147,69.9145 42.0312,70.1562 42.2479,70.3979 42.375,70.7666 42.375,71.25 42.375,71.7656 42.2497,72.1502 42.0312,72.4062 41.8128,72.6623 41.5651,72.7812 41.25,72.7812 40.9742,72.7812 40.7113,72.6987 40.5,72.5 40.2887,72.3013 40.1679,72.0276 40.125,71.6875 L 38.625,71.8438 C 38.7146,72.5027 38.9792,73.016 39.4375,73.4062 39.8959,73.7966 40.4918,74 41.2188,74 42.1283,74 42.8317,73.6634 43.3438,72.9688 43.7197,72.4603 43.9062,71.867 43.9062,71.2188 43.9062,70.4417 43.6842,69.7995 43.2188,69.3125 42.7532,68.8256 42.2009,68.5938 41.5312,68.5938 41.1803,68.5938 40.8366,68.6754 40.5,68.8438 L 40.7188,67.5 43.5625,67.5 43.5625,66.0938 39.5938,66.0938 z M 44.3125,72.3438 44.3125,73.875 45.8125,73.875 45.8125,72.3438 44.3125,72.3438 z"
     id="path3600"
     style="fill:#231f20;stroke:none;" />
  <path
     d="M 28.2812,39.0312 C 27.6871,39.0312 27.1957,39.1421 26.8438,39.3438 26.4919,39.5454 26.2184,39.8282 26.0312,40.1875 25.8441,40.5468 25.7425,40.9664 25.6875,41.4688 25.6326,41.9712 25.5938,42.531 25.5938,43.125 25.5938,43.7189 25.6326,44.279 25.6875,44.7812 25.7425,45.2836 25.8441,45.703 26.0312,46.0625 26.2184,46.4219 26.4919,46.7047 26.8438,46.9062 27.1957,47.1079 27.6871,47.2188 28.2812,47.2188 28.8752,47.2188 29.3355,47.1079 29.6875,46.9062 30.0394,46.7047 30.3129,46.4219 30.5,46.0625 30.6871,45.703 30.7889,45.2836 30.8438,44.7812 30.8987,44.279 30.9375,43.7189 30.9375,43.125 30.9375,42.531 30.8987,41.9712 30.8438,41.4688 30.7889,40.9664 30.6871,40.5468 30.5,40.1875 30.3129,39.8282 30.0394,39.5454 29.6875,39.3438 29.3355,39.1421 28.8752,39.0312 28.2812,39.0312 z M 40.5625,39.0312 C 40.0565,39.0312 39.6497,39.1439 39.3125,39.3125 38.9752,39.4811 38.7053,39.7288 38.5,40.0625 38.2947,40.3962 38.1469,40.8138 38.0625,41.3125 37.9782,41.8112 37.9375,42.3713 37.9375,43.0312 37.9375,43.7131 37.9414,44.3269 38,44.8438 38.0587,45.3608 38.2026,45.8043 38.375,46.1562 38.5473,46.5084 38.7581,46.7578 39.0625,46.9375 39.3668,47.1173 39.766,47.2188 40.25,47.2188 40.624,47.2188 40.9511,47.1393 41.2188,47 41.4864,46.8607 41.7156,46.6519 41.9062,46.3438 L 41.9375,46.3438 41.9375,47.0625 43.0938,47.0625 43.0938,42.8125 40.5312,42.8125 40.5312,44 41.5938,44 41.5938,44.7812 C 41.5938,44.9938 41.5348,45.1861 41.4688,45.3438 41.4027,45.5014 41.3178,45.6473 41.2188,45.75 41.1197,45.8527 41.0198,45.9175 40.9062,45.9688 40.7927,46.0201 40.6891,46.0312 40.5938,46.0312 40.3664,46.0312 40.1743,45.9555 40.0312,45.8125 39.8882,45.6695 39.7957,45.4864 39.7188,45.2188 39.6418,44.9511 39.5918,44.6277 39.5625,44.25 39.5332,43.8724 39.5,43.4455 39.5,42.9688 39.5,41.986 39.5813,41.2691 39.75,40.8438 39.9186,40.4184 40.2125,40.2188 40.5938,40.2188 40.7552,40.2188 40.8863,40.2594 41,40.3438 41.1137,40.4282 41.2079,40.5279 41.2812,40.6562 41.3544,40.7846 41.4045,40.9361 41.4375,41.0938 41.4705,41.2514 41.5,41.392 41.5,41.5312 L 43,41.5312 C 43,40.7321 42.8189,40.1165 42.4375,39.6875 42.0562,39.2585 41.4279,39.0312 40.5625,39.0312 z M 61.9062,39.0312 C 61.312,39.0312 60.852,39.1421 60.5,39.3438 60.1481,39.5454 59.8746,39.8282 59.6875,40.1875 59.5004,40.5468 59.3674,40.9664 59.3125,41.4688 59.2575,41.9712 59.25,42.531 59.25,43.125 59.25,43.7189 59.2575,44.279 59.3125,44.7812 59.3674,45.2836 59.5004,45.703 59.6875,46.0625 59.8746,46.4219 60.1481,46.7047 60.5,46.9062 60.852,47.1079 61.312,47.2188 61.9062,47.2188 62.4267,47.2188 62.8613,47.1375 63.1875,46.9688 63.5138,46.8 63.7577,46.5709 63.9375,46.2812 64.1172,45.9916 64.2465,45.6313 64.3125,45.25 64.3786,44.8686 64.4062,44.4879 64.4062,44.0625 L 62.8125,44.0625 C 62.8125,44.4879 62.8014,44.8334 62.75,45.0938 62.6986,45.354 62.6193,45.5445 62.5312,45.6875 62.4433,45.8305 62.3397,45.9211 62.2188,45.9688 62.0978,46.0164 61.9832,46.0312 61.8438,46.0312 61.675,46.0312 61.5032,46.0071 61.375,45.9375 61.2468,45.8679 61.1469,45.7329 61.0625,45.5312 60.9781,45.3297 60.9153,45.0541 60.875,44.6875 60.8346,44.3208 60.8125,43.8439 60.8125,43.25 60.8125,42.6925 60.8456,42.1976 60.875,41.8125 60.9044,41.4275 60.9579,41.1132 61.0312,40.875 61.1045,40.6368 61.1842,40.4815 61.3125,40.375 61.4409,40.2686 61.6144,40.2188 61.8125,40.2188 62.1716,40.2188 62.4268,40.3333 62.5625,40.5938 62.6983,40.8541 62.75,41.2718 62.75,41.8438 L 64.3438,41.8438 C 64.3438,41.5578 64.3216,41.2639 64.2812,40.9375 64.2409,40.6111 64.1301,40.3135 63.9688,40.0312 63.8073,39.749 63.5763,39.4958 63.25,39.3125 62.9237,39.1292 62.4708,39.0312 61.9062,39.0312 z M 31.875,39.1875 31.875,47.0625 33.4688,47.0625 33.4688,43.7188 34.3125,43.7188 C 34.6426,43.7188 34.892,43.824 35.0312,44 35.1705,44.176 35.2354,44.4108 35.25,44.7188 L 35.2812,46.2188 C 35.2887,46.373 35.3218,46.5446 35.3438,46.6875 35.3659,46.8304 35.4195,46.9524 35.5,47.0625 L 37.2188,47.0625 37.2188,47 C 37.0722,46.9194 36.9779,46.7512 36.9375,46.5312 36.8971,46.3113 36.8509,46.0117 36.8438,45.5938 36.8364,45.1756 36.8143,44.8173 36.7812,44.5312 36.7483,44.2452 36.713,43.9995 36.625,43.8125 36.5369,43.6255 36.4113,43.4739 36.25,43.375 36.0888,43.2761 35.8651,43.2242 35.5938,43.1875 L 35.5938,43.1562 C 36.041,43.0609 36.3498,42.8648 36.5625,42.5312 36.7752,42.1975 36.9062,41.7467 36.9062,41.2188 36.9062,40.5369 36.7105,40.0211 36.3438,39.6875 35.977,39.3538 35.4725,39.1875 34.8125,39.1875 L 31.875,39.1875 z M 45.6562,39.1875 43.5625,47.0625 45.2188,47.0625 45.5938,45.4062 47.6875,45.4062 48.0312,47.0625 49.6875,47.0625 47.625,39.1875 45.6562,39.1875 z M 50.25,39.1875 50.25,47.0625 51.6875,47.0625 51.6875,41.5625 51.7188,41.5625 53.6562,47.0625 55.4688,47.0625 55.4688,39.1875 54,39.1875 54,44.5938 52.0625,39.1875 50.25,39.1875 z M 56.6562,39.1875 56.6562,47.0625 58.2188,47.0625 58.2188,39.1875 56.6562,39.1875 z M 28.2812,40.2188 C 28.5158,40.2188 28.7007,40.2686 28.8438,40.375 28.9868,40.4815 29.0793,40.6404 29.1562,40.875 29.2332,41.1097 29.2868,41.4146 29.3125,41.7812 29.3383,42.148 29.3438,42.5971 29.3438,43.125 29.3438,43.6529 29.3383,44.0984 29.3125,44.4688 29.2868,44.8391 29.2332,45.144 29.1562,45.375 29.0793,45.6059 28.9868,45.7687 28.8438,45.875 28.7007,45.9813 28.5158,46.0312 28.2812,46.0312 28.0465,46.0312 27.8305,45.9813 27.6875,45.875 27.5445,45.7687 27.452,45.6059 27.375,45.375 27.298,45.144 27.2446,44.8391 27.2188,44.4688 27.193,44.0984 27.1875,43.6529 27.1875,43.125 27.1875,42.5971 27.193,42.148 27.2188,41.7812 27.2446,41.4146 27.298,41.1097 27.375,40.875 27.452,40.6404 27.5445,40.4815 27.6875,40.375 27.8305,40.2686 28.0465,40.2188 28.2812,40.2188 z M 33.4688,40.375 34.2188,40.375 C 34.952,40.375 35.3125,40.7428 35.3125,41.4688 35.3125,41.8942 35.2054,42.1954 35,42.375 34.7947,42.5546 34.5064,42.625 34.125,42.625 L 33.4688,42.625 33.4688,40.375 z M 46.625,40.5625 46.6562,40.5625 47.4062,44.0938 45.875,44.0938 46.625,40.5625 z"
     id="path3624"
     style="fill:#231f20;stroke:none;" />
  <path
     d="M 44.8875,11.5308 44.3805,12.0879 C 42.9815,13.821 44.9635,15.7606 44.1025,17.529 43.7205,16.67 42.8535,15.7297 41.8995,15.6812 L 41.8995,15.8083 C 41.9325,15.7906 41.9425,15.8171 41.9765,15.8339 42.9305,17.25 42.3585,19.1164 41.4695,20.3895 41.1175,19.9287 40.6545,19.2277 40.0525,19.1491 L 40.0525,19.2762 C 40.8145,20.2624 40.4385,21.6644 39.9265,22.6673 39.7205,23.0629 39.7875,23.627 39.5465,24.0084 39.1655,23.77 38.7465,23.4628 38.2045,23.4769 L 38.2045,23.6288 C 39.4155,25.0935 38.1855,26.9033 38.4075,28.5896 38.5475,28.9975 38.7015,29.6385 39.1925,29.7029 39.3665,31.7026 40.5485,33.4233 42.2295,34.3327 L 38.1545,34.3327 38.1545,36.0278 51.8455,36.0278 51.8455,34.3327 47.7975,34.3327 C 49.5415,33.3968 50.7485,31.5896 50.8595,29.5007 50.9275,29.5025 50.9915,29.5007 51.0615,29.5007 52.6695,27.4631 49.9625,25.0687 51.7455,23.0973 51.3485,23.0178 50.9725,23.2068 50.6065,23.3507 L 50.5305,23.2747 C 50.6865,22.5896 50.8235,21.9204 50.8085,21.1735 50.6785,19.9949 50.3945,18.8639 49.8215,17.9087 49.7585,18.4516 49.8195,19.0396 49.5175,19.4528 49.6615,17.8945 48.8585,16.5058 47.5695,15.6317 47.5065,16.1244 47.9375,16.6647 47.6205,17.175 47.5245,16.6479 47.2175,16.2197 46.9615,15.758 46.2125,14.6932 44.8715,13.8386 44.8875,12.3916 44.8385,12.072 45.0145,11.7701 44.8875,11.5308 z M 45.7215,18.238 C 46.2295,19.2259 45.4145,20.1856 45.6205,21.2494 45.9215,21.9354 46.5185,22.655 46.2785,23.4513 46.2755,23.4619 46.2805,23.4672 46.2785,23.4769 45.8725,23.3877 45.4465,23.3251 45.0135,23.3251 44.9045,23.3251 44.7915,23.3445 44.6845,23.3507 L 44.7605,22.8942 C 43.4865,21.2724 44.9085,19.6214 45.7215,18.238 z M 42.9375,21.7562 C 43.0975,22.3769 43.5245,22.866 43.6215,23.5016 43.2685,23.5882 42.9325,23.6844 42.6085,23.8318 42.8025,23.341 42.7185,22.6947 42.6845,22.1606 42.7685,22.0334 42.7165,21.803 42.9375,21.7562 z M 47.6205,21.8321 C 48.1435,22.3098 48.0545,23.2942 47.8475,23.9325 47.8285,23.9669 47.8315,24.0005 47.8225,24.034 47.5315,23.8733 47.2295,23.7382 46.9115,23.6288 46.9175,23.6111 46.9325,23.5988 46.9365,23.5784 47.1275,22.9905 47.4915,22.4519 47.6205,21.8321 z M 41.0905,23.2995 C 41.2815,23.665 41.2995,24.1664 41.6975,24.388 41.4085,24.5893 41.1345,24.7968 40.8875,25.0467 40.8845,24.4145 40.7075,23.8495 41.0905,23.2995 z M 49.3155,23.7047 C 49.3455,23.7091 49.3855,23.7294 49.4165,23.7806 L 49.3415,25.1729 C 49.3425,25.1941 49.3405,25.2268 49.3415,25.2488 49.0905,24.9751 48.8035,24.7368 48.5055,24.5143 48.5325,24.4984 48.5595,24.4887 48.5815,24.464 48.8185,24.3042 48.8555,24.049 49.0625,23.8566 49.1465,23.8336 49.2255,23.6906 49.3155,23.7047 z M 45.0135,24.8939 C 47.3835,24.8939 49.3155,26.8256 49.3155,29.197 49.3155,31.5649 47.3835,33.4763 45.0135,33.4763 42.6425,33.4763 40.7355,31.5649 40.7355,29.197 40.7355,26.8256 42.6425,24.8939 45.0135,24.8939 z M 39.5465,25.9313 C 39.7555,25.9472 39.7425,26.2368 39.9515,26.2862 39.8395,26.4813 39.7305,26.68 39.6345,26.8839 L 39.6225,26.8689 C 39.5425,26.567 39.4675,26.25 39.5465,25.9313 z"
     id="path1360-4"
     style="fill:#231f20;stroke:none" />
  <path
     d="M 43.2188,49.9062 C 42.6245,49.9062 42.1645,50.0172 41.8125,50.2188 41.4606,50.4203 41.1871,50.7032 41,51.0625 40.8129,51.4218 40.6799,51.8413 40.625,52.3438 40.57,52.8462 40.5625,53.4061 40.5625,54 40.5625,54.594 40.57,55.1227 40.625,55.625 40.6799,56.1274 40.8129,56.5781 41,56.9375 41.1871,57.2969 41.4606,57.5797 41.8125,57.7812 42.1645,57.983 42.6245,58.0625 43.2188,58.0625 43.8126,58.0625 44.3043,57.983 44.6562,57.7812 45.0082,57.5797 45.2816,57.2969 45.4688,56.9375 45.6559,56.5781 45.7575,56.1274 45.8125,55.625 45.8674,55.1227 45.9062,54.594 45.9062,54 45.9062,53.4061 45.8674,52.8462 45.8125,52.3438 45.7575,51.8413 45.6559,51.4218 45.4688,51.0625 45.2816,50.7032 45.0082,50.4203 44.6562,50.2188 44.3043,50.0172 43.8126,49.9062 43.2188,49.9062 z M 23.5938,50.0625 23.5938,57.9062 25.1875,57.9062 25.1875,54.7812 26.0312,54.7812 C 26.4053,54.7813 26.7545,54.7204 27.0625,54.625 27.3706,54.5297 27.6274,54.4094 27.8438,54.2188 28.06,54.0282 28.2228,53.7657 28.3438,53.4688 28.4647,53.1718 28.5312,52.8169 28.5312,52.4062 28.5312,52.1128 28.4795,51.8448 28.4062,51.5625 28.333,51.2802 28.2311,51.0325 28.0625,50.8125 27.8939,50.5925 27.65,50.4169 27.375,50.2812 27.0999,50.1456 26.7783,50.0625 26.375,50.0625 L 23.5938,50.0625 z M 29.3125,50.0625 29.3125,57.9062 33.8125,57.9062 33.8125,56.625 30.9062,56.625 30.9062,54.5 33.5312,54.5 33.5312,53.2188 30.9062,53.2188 30.9062,51.375 33.6875,51.375 33.6875,50.0625 29.3125,50.0625 z M 34.5938,50.0625 34.5938,57.9062 36.1875,57.9062 36.1875,54.5938 37.0312,54.5938 C 37.3613,54.5938 37.5795,54.6677 37.7188,54.8438 37.858,55.0197 37.9543,55.2859 37.9688,55.5938 L 38,57.0938 C 38.0074,57.2479 38.0405,57.3883 38.0625,57.5312 38.0846,57.6741 38.1381,57.7961 38.2188,57.9062 L 39.9062,57.9062 39.9062,57.8438 C 39.7597,57.7631 39.6965,57.6262 39.6562,57.4062 39.6158,57.1863 39.5697,56.8555 39.5625,56.4375 39.5551,56.0194 39.533,55.661 39.5,55.375 39.467,55.089 39.4006,54.8745 39.3125,54.6875 39.2244,54.5005 39.13,54.349 38.9688,54.25 38.8074,54.1511 38.584,54.068 38.3125,54.0312 38.7599,53.9359 39.0686,53.7087 39.2812,53.375 39.494,53.0413 39.625,52.6217 39.625,52.0938 39.625,51.4119 39.4291,50.8962 39.0625,50.5625 38.6958,50.2289 38.1912,50.0625 37.5312,50.0625 L 34.5938,50.0625 z M 46.5,50.0625 48.3125,53.9375 46.375,57.9062 48.0938,57.9062 49.2188,55.25 50.3438,57.9062 52.125,57.9062 50.1875,53.9375 52,50.0625 50.2812,50.0625 49.2812,52.5938 48.25,50.0625 46.5,50.0625 z M 52.8438,50.0625 52.8438,57.9062 54.4062,57.9062 54.4062,50.0625 52.8438,50.0625 z M 55.6562,50.0625 55.6562,57.9062 58.1562,57.9062 C 58.6842,57.9062 59.124,57.8488 59.4688,57.6875 59.8135,57.5261 60.076,57.2675 60.2812,56.9375 60.4867,56.6076 60.6345,56.1935 60.7188,55.6875 60.803,55.1815 60.8438,54.5717 60.8438,53.875 60.8438,53.2956 60.816,52.7818 60.75,52.3125 60.684,51.8432 60.562,51.4274 60.375,51.0938 60.188,50.76 59.931,50.5234 59.5938,50.3438 59.2565,50.1642 58.8001,50.0625 58.25,50.0625 L 55.6562,50.0625 z M 61.9062,50.0625 61.9062,57.9062 66.4062,57.9062 66.4062,56.625 63.5,56.625 63.5,54.5 66.125,54.5 66.125,53.2188 63.5,53.2188 63.5,51.375 66.2812,51.375 66.2812,50.0625 61.9062,50.0625 z M 43.2188,51.0625 C 43.4532,51.0625 43.6382,51.1123 43.7812,51.2188 43.9243,51.3252 44.048,51.5154 44.125,51.75 44.202,51.9847 44.2555,52.2895 44.2812,52.6562 44.307,53.023 44.3125,53.4721 44.3125,54 44.3125,54.528 44.307,54.9734 44.2812,55.3438 44.2555,55.7142 44.202,56.0191 44.125,56.25 44.048,56.481 43.9243,56.6437 43.7812,56.75 43.6382,56.8563 43.4532,56.9062 43.2188,56.9062 42.984,56.9062 42.7992,56.8563 42.6562,56.75 42.5132,56.6437 42.4208,56.481 42.3438,56.25 42.2669,56.0191 42.2132,55.7142 42.1875,55.3438 42.1617,54.9734 42.125,54.528 42.125,54 42.125,53.4721 42.1617,53.023 42.1875,52.6562 42.2132,52.2895 42.2669,51.9847 42.3438,51.75 42.4208,51.5154 42.5132,51.3252 42.6562,51.2188 42.7992,51.1123 42.984,51.0625 43.2188,51.0625 z M 25.1875,51.2188 25.8438,51.2188 C 26.24,51.2188 26.5188,51.3259 26.6875,51.5312 26.8561,51.7366 26.9375,52.0414 26.9375,52.4375 26.9375,52.8408 26.8506,53.1531 26.6562,53.3438 26.4619,53.5344 26.1903,53.625 25.875,53.625 L 25.1875,53.625 25.1875,51.2188 z M 36.1875,51.2188 36.9375,51.2188 C 37.6709,51.2188 38.0312,51.5865 38.0312,52.3125 38.0312,52.7379 37.924,53.0391 37.7188,53.2188 37.5133,53.3984 37.2251,53.5 36.8438,53.5 L 36.1875,53.5 36.1875,51.2188 z M 57.25,51.2188 57.9062,51.2188 C 58.2071,51.2188 58.4454,51.2926 58.625,51.4062 58.8046,51.52 58.9708,51.6791 59.0625,51.9062 59.1543,52.1335 59.1895,52.4164 59.2188,52.75 59.2481,53.0837 59.2812,53.4902 59.2812,53.9375 59.2812,54.4728 59.2518,54.9218 59.2188,55.2812 59.1857,55.6407 59.1303,55.905 59.0312,56.125 58.9322,56.345 58.7973,56.4984 58.625,56.5938 58.4527,56.6891 58.2087,56.75 57.9375,56.75 L 57.25,56.75 57.25,51.2188 z"
     id="path3607"
     style="fill:#231f20;stroke:none;" />
</svg>
