<?xml version="1.0" encoding="UTF-8" standalone="no"?>
<!-- Created with Inkscape (http://www.inkscape.org/) -->

<svg
   xmlns:dc="http://purl.org/dc/elements/1.1/"
   xmlns:cc="http://creativecommons.org/ns#"
   xmlns:rdf="http://www.w3.org/1999/02/22-rdf-syntax-ns#"
   xmlns:svg="http://www.w3.org/2000/svg"
   xmlns="http://www.w3.org/2000/svg"
   version="1.1"
   width="90"
   height="90"
   id="svg6792">
  <defs
     id="defs6794" />
  <rect
     width="60"
     height="60"
     rx="0"
     ry="0"
     x="33.6393"
     y="-30.0003"
     transform="matrix(0.707107,0.707107,-0.707107,0.707107,0,0)"
     id="rect6763"
     style="fill:#f79528;stroke:#231f20;stroke-width:0.7" />
  <rect
     width="51.25"
     height="51.25"
     x="-25.6257"
     y="38.0153"
     transform="matrix(0.707107,-0.707107,0.707107,0.707107,0,0)"
     id="rect6769"
     style="fill:none;stroke:#231f20;stroke-width:0.7" />
  <path
     d="M 45.9532,76.2999 44.5812,76.2999 44.5812,71.129 C 44.0799,71.5977 43.4891,71.9444 42.8087,72.169 L 42.8087,70.9239 C 43.1668,70.8067 43.5558,70.5845 43.9757,70.2574 44.3956,69.9302 44.6837,69.5486 44.84,69.1124 L 45.9532,69.1124 z"
     id="path3025"
     style="fill:#231f20;stroke:none;" />
  <path
     d="M 43.5987,66.5333 42.6033,65.762 C 42.9197,65.4061 43.2493,65.0655 43.5921,64.7403 43.7283,64.6085 43.814,64.525 43.8491,64.4898 43.7393,64.4722 43.4251,64.3997 42.9065,64.2723 42.533,64.18 42.2869,64.1119 42.1682,64.0679 L 42.5571,62.9078 C 43.1328,63.1407 43.647,63.3978 44.0996,63.679 43.9942,62.9627 43.9414,62.3782 43.9414,61.9256 L 45.1148,61.9256 C 45.1148,62.2464 45.0554,62.8353 44.9368,63.6922 45.0247,63.6571 45.2136,63.5714 45.5037,63.4351 45.8992,63.255 46.2639,63.1011 46.5979,62.9737 L 46.9473,64.1668 C 46.4595,64.2767 45.8948,64.3843 45.2532,64.4898 L 46.0442,65.3797 C 46.2024,65.5599 46.3277,65.7071 46.4199,65.8214 L 45.4114,66.4871 44.5215,65.0172 C 44.2534,65.4918 43.9458,65.9971 43.5987,66.5333 z"
     id="path3028"
     style="fill:#231f20;stroke:none;" />
  <path
     d="M 37.6875,19.0625 C 37.6354,19.6562 37.3698,20.1407 36.9062,20.5 36.4427,20.8594 35.7552,21.0312 34.875,21.0312 L 34.5625,21.0312 34.5625,22.625 37.25,22.625 37.25,30.4375 39.5,30.4375 39.5,19.0625 37.6875,19.0625 z M 51.8438,19.0625 C 50.4323,19.0625 49.3593,19.5442 48.6562,20.5 47.9531,21.4557 47.625,22.974 47.625,25.0312 47.625,26.9688 47.9557,28.4088 48.625,29.3438 49.2942,30.2786 50.3125,30.75 51.7188,30.75 52.8332,30.75 53.7266,30.3385 54.4062,29.5625 55.0859,28.7864 55.4375,27.8072 55.4375,26.5938 55.4375,25.6146 55.1328,24.7708 54.5,24.0938 53.8672,23.4166 53.0416,23.0938 52.0312,23.0938 51.0208,23.0938 50.2918,23.4011 49.8438,24.0312 L 49.8125,24 C 49.901,21.9063 50.526,20.875 51.6875,20.875 52.4531,20.875 52.8906,21.2396 53,21.9688 L 55.2188,21.9688 C 55.0782,20.9427 54.6797,20.198 54.0625,19.75 53.4453,19.3021 52.7188,19.0625 51.8438,19.0625 z M 51.5625,24.875 C 52.026,24.8751 52.4062,25.0364 52.7188,25.375 53.0312,25.7135 53.1875,26.1876 53.1875,26.7812 53.1875,27.4584 53.0652,27.9922 52.7812,28.375 52.4975,28.7579 52.099,28.9375 51.625,28.9375 51.1146,28.9375 50.7135,28.75 50.375,28.375 50.0364,28 49.8438,27.5052 49.8438,26.8438 49.8438,26.2292 49.9974,25.75 50.3125,25.4062 50.6276,25.0625 51.0521,24.8751 51.5625,24.875 z M 43.5625,28.0938 43.5625,30.4375 45.9375,30.4375 45.9375,28.0938 43.5625,28.0938 z"
     id="path3031"
     style="fill:#231f20;stroke:none;" />
  <path
     d="M 43.3438,41.2812 C 42.761,41.2812 42.2585,41.4049 41.8125,41.5938 41.4772,41.7338 41.1566,41.929 40.875,42.2188 40.5935,42.5085 40.3815,42.8542 40.2188,43.2188 40.0007,43.7136 39.9062,44.3021 39.9062,45.0312 39.9062,46.1705 40.2154,47.0694 40.8438,47.7188 41.4719,48.3681 42.3106,48.6875 43.375,48.6875 44.4265,48.6875 45.278,48.3714 45.9062,47.7188 46.5344,47.0662 46.8438,46.1556 46.8438,45 46.8438,43.8347 46.5082,42.9355 45.875,42.2812 45.2419,41.627 44.3984,41.2812 43.3438,41.2812 z M 50.2188,41.2812 C 49.6685,41.2812 49.1703,41.3652 48.7812,41.5312 48.3922,41.6972 48.1129,41.9639 47.9062,42.2812 47.6996,42.5986 47.5938,42.9166 47.5938,43.2812 47.5938,43.8477 47.8106,44.3249 48.25,44.7188 48.5625,44.9987 49.1003,45.2454 49.875,45.4375 50.4772,45.5872 50.862,45.6914 51.0312,45.75 51.2786,45.8379 51.4632,45.9436 51.5625,46.0625 51.6617,46.1813 51.7188,46.3307 51.7188,46.5 51.7188,46.7637 51.5798,46.9906 51.3438,47.1875 51.1078,47.3844 50.778,47.4688 50.3125,47.4688 49.8731,47.4688 49.5088,47.3775 49.25,47.1562 48.9912,46.9348 48.8347,46.597 48.75,46.125 L 47.3438,46.25 C 47.4382,47.0507 47.7025,47.6442 48.1875,48.0625 48.6725,48.4808 49.3762,48.7188 50.2812,48.7188 50.9029,48.7188 51.4271,48.6116 51.8438,48.4375 52.2604,48.2633 52.5846,48.0144 52.8125,47.6562 53.0404,47.2983 53.1562,46.9102 53.1562,46.5 53.1562,46.0475 53.0655,45.6514 52.875,45.3438 52.6846,45.0361 52.3994,44.8024 52.0625,44.625 51.7256,44.4476 51.2343,44.2598 50.5312,44.0938 49.828,43.9278 49.3698,43.778 49.1875,43.625 49.0443,43.5045 48.9688,43.3568 48.9688,43.1875 48.9688,43.002 49.0658,42.8606 49.2188,42.75 49.4564,42.5774 49.7676,42.5 50.1875,42.5 50.5944,42.5 50.8902,42.5888 51.0938,42.75 51.2971,42.9111 51.4381,43.1634 51.5,43.5312 L 52.9375,43.4688 C 52.9147,42.8112 52.6728,42.2689 52.2188,41.875 51.7647,41.4811 51.1171,41.2812 50.2188,41.2812 z M 71.9688,41.2812 C 71.4185,41.2812 70.9515,41.3652 70.5625,41.5312 70.1735,41.6972 69.8942,41.9639 69.6875,42.2812 69.4808,42.5986 69.375,42.9166 69.375,43.2812 69.375,43.8477 69.5919,44.3249 70.0312,44.7188 70.3438,44.9987 70.8815,45.2454 71.6562,45.4375 72.2584,45.5872 72.6433,45.6914 72.8125,45.75 73.0599,45.8379 73.2445,45.9436 73.3438,46.0625 73.443,46.1813 73.4688,46.3307 73.4688,46.5 73.4688,46.7637 73.361,46.9906 73.125,47.1875 72.889,47.3844 72.528,47.4688 72.0625,47.4688 71.6231,47.4688 71.2901,47.3775 71.0312,47.1562 70.7725,46.9348 70.5847,46.597 70.5,46.125 L 69.0938,46.25 C 69.1881,47.0507 69.4838,47.6442 69.9688,48.0625 70.4537,48.4808 71.1575,48.7188 72.0625,48.7188 72.6842,48.7188 73.2083,48.6116 73.625,48.4375 74.0417,48.2633 74.3658,48.0144 74.5938,47.6562 74.8216,47.2983 74.9375,46.9102 74.9375,46.5 74.9375,46.0475 74.8155,45.6514 74.625,45.3438 74.4346,45.0361 74.1806,44.8024 73.8438,44.625 73.5069,44.4476 72.9843,44.2598 72.2812,44.0938 71.578,43.9278 71.1511,43.778 70.9688,43.625 70.8256,43.5045 70.75,43.3568 70.75,43.1875 70.75,43.002 70.8157,42.8606 70.9688,42.75 71.2064,42.5774 71.5489,42.5 71.9688,42.5 72.3757,42.5 72.6715,42.5888 72.875,42.75 73.0784,42.9111 73.2193,43.1634 73.2812,43.5312 L 74.7188,43.4688 C 74.6959,42.8112 74.4541,42.2689 74,41.875 73.5459,41.4811 72.8671,41.2812 71.9688,41.2812 z M 15.0625,41.4062 15.0625,48.5625 20.5312,48.5625 20.5312,47.375 16.5312,47.375 16.5312,45.4375 20.125,45.4375 20.125,44.2188 16.5312,44.2188 16.5312,42.625 20.375,42.625 20.375,41.4062 15.0625,41.4062 z M 21,41.4062 23.2188,44.8438 20.7812,48.5625 22.5,48.5625 24.0938,46.0938 25.6875,48.5625 27.4062,48.5625 24.9688,44.9062 27.1875,41.4062 25.5312,41.4062 24.125,43.7188 22.6875,41.4062 21,41.4062 z M 27.9062,41.4062 27.9062,48.5625 29.3438,48.5625 29.3438,45.875 30.3125,45.875 C 30.9668,45.875 31.4674,45.8497 31.8125,45.7812 32.0664,45.726 32.3167,45.6084 32.5625,45.4375 32.8083,45.2666 32.9967,45.0183 33.1562,44.7188 33.3158,44.4192 33.4062,44.0645 33.4062,43.625 33.4062,43.0553 33.2455,42.5785 32.9688,42.2188 32.6921,41.8591 32.3476,41.6386 31.9375,41.5312 31.6705,41.4597 31.0976,41.4062 30.2188,41.4062 L 27.9062,41.4062 z M 54.0625,41.4062 54.0625,48.5625 55.5312,48.5625 55.5312,41.4062 54.0625,41.4062 z M 55.9062,41.4062 58.4688,48.5625 60,48.5625 62.5625,41.4062 61.0312,41.4062 59.2812,46.7188 57.4688,41.4062 55.9062,41.4062 z M 63.0625,41.4062 63.0625,48.5625 68.5,48.5625 68.5,47.375 64.5,47.375 64.5,45.4375 68.0938,45.4375 68.0938,44.2188 64.5,44.2188 64.5,42.625 68.375,42.625 68.375,41.4062 63.0625,41.4062 z M 34.375,41.4688 34.375,48.5625 39.4062,48.5625 39.4062,47.375 35.8125,47.375 35.8125,41.4688 34.375,41.4688 z M 43.375,42.5312 C 43.9707,42.5312 44.4527,42.7214 44.8125,43.125 45.1721,43.5287 45.3438,44.1484 45.3438,44.9688 45.3438,45.7988 45.1507,46.4288 44.7812,46.8438 44.4117,47.2588 43.9512,47.4688 43.375,47.4688 42.7989,47.4688 42.3118,47.262 41.9375,46.8438 41.5631,46.4254 41.375,45.8105 41.375,45 41.375,44.1764 41.5729,43.5648 41.9375,43.1562 42.3021,42.7477 42.7793,42.5312 43.375,42.5312 z M 29.3438,42.625 30.0625,42.625 C 30.5834,42.625 30.9211,42.655 31.0938,42.6875 31.328,42.7298 31.5345,42.8307 31.6875,43 31.8405,43.1693 31.9062,43.3646 31.9062,43.625 31.9062,43.8366 31.8591,44.028 31.75,44.1875 31.641,44.347 31.4733,44.4877 31.2812,44.5625 31.0892,44.6374 30.726,44.6562 30.1562,44.6562 L 29.3438,44.6562 29.3438,42.625 z"
     id="path3066"
     style="fill:#231f20;stroke:none;" />
</svg>
