<?xml version="1.0" encoding="UTF-8" standalone="no"?>
<!-- Created with Inkscape (http://www.inkscape.org/) -->

<svg
   xmlns:dc="http://purl.org/dc/elements/1.1/"
   xmlns:cc="http://creativecommons.org/ns#"
   xmlns:rdf="http://www.w3.org/1999/02/22-rdf-syntax-ns#"
   xmlns:svg="http://www.w3.org/2000/svg"
   xmlns="http://www.w3.org/2000/svg"
   version="1.1"
   width="90"
   height="90"
   id="svg6792">
  <defs
     id="defs6794" />
  <rect
     width="60"
     height="60"
     rx="0"
     ry="0"
     x="33.6395"
     y="-30"
     transform="matrix(0.707107,0.707107,-0.707107,0.707107,0,0)"
     id="rect6763"
     style="fill:#ffffff;stroke:#231f20;stroke-width:0.7" />
  <path
     d="M 42.5212,72.0396 43.9822,71.8784 C 44.018,72.1756 44.1111,72.3958 44.2615,72.5391 44.4119,72.6823 44.6106,72.7539 44.8577,72.7539 45.1692,72.7539 45.4342,72.6107 45.6526,72.3242 45.871,72.0378 46.0107,71.4434 46.0715,70.541 45.692,70.9814 45.2175,71.2017 44.6482,71.2017 44.0287,71.2017 43.4943,70.9626 43.0449,70.4846 42.5955,70.0066 42.3708,69.3844 42.3708,68.6182 42.3708,67.8197 42.6081,67.176 43.0825,66.6873 43.557,66.1985 44.1612,65.9541 44.8953,65.9541 45.6938,65.9541 46.349,66.2629 46.8611,66.8806 47.3731,67.4983 47.6291,68.5143 47.6292,69.9287 47.6291,71.3682 47.3624,72.4066 46.8289,73.0439 46.2953,73.6813 45.6007,74 44.7449,74 44.129,74 43.6313,73.8362 43.2517,73.5085 42.8722,73.1809 42.6287,72.6912 42.5212,72.0396 z M 45.9373,68.7417 C 45.9373,68.2547 45.8254,67.877 45.6016,67.6084 45.3778,67.3399 45.1191,67.2056 44.8254,67.2056 44.5461,67.2056 44.3143,67.3157 44.1299,67.5359 43.9455,67.7561 43.8533,68.1169 43.8533,68.6182 43.8533,69.1266 43.9535,69.4999 44.1541,69.738 44.3546,69.9762 44.6052,70.0952 44.906,70.0952 45.196,70.0952 45.4404,69.9806 45.6392,69.7515 45.8379,69.5223 45.9373,69.1857 45.9373,68.7417 z"
     id="path2988"
     style="fill:#231f20;stroke:none;" />
  <path
     d="M 45,2.5625 42.2188,5.34375 42.2188,45 47.7812,45 47.7812,5.34375 45,2.5625 z M 36.6875,10.875 31.1562,16.4062 31.1562,45 36.6875,45 36.6875,10.875 z M 53.4062,10.9688 53.4062,45 58.9688,45 58.9688,16.5312 53.4062,10.9688 z M 25.625,21.9375 20.0625,27.5 20.0625,45 25.625,45 25.625,21.9375 z M 64.5312,22.0938 64.5312,45 70.0625,45 70.0625,27.625 64.5312,22.0938 z M 14.5625,33 9,38.5625 9,45 14.5625,45 14.5625,33 z M 75.625,33.1875 75.625,45 81.1875,45 81.1875,38.75 75.625,33.1875 z"
     id="rect3103"
     style="fill:#231f20;stroke:none" />
  <rect
     width="51.25"
     height="51.25"
     x="-25.6255"
     y="38.0155"
     transform="matrix(0.707107,-0.707107,0.707107,0.707107,0,0)"
     id="rect6769"
     style="fill:none;stroke:#231f20;stroke-width:0.7" />
</svg>
